<svg width="349" height="269" viewBox="0 0 349 269" fill="none" xmlns="http://www.w3.org/2000/svg">
<g style="mix-blend-mode:luminosity" filter="url(#filter0_d_17_219)">
<path opacity="0.4" d="M238.38 65.6469L234.851 70.1126L215.527 94.5133L211.998 83.4602L119.623 107.639C114.391 108.996 108.863 108.206 104.223 105.443L103.68 105.122C97.831 101.619 90.5259 101.594 84.6522 105.098L51.2117 125.008L46.4239 111.66L43.9806 104.851L90.2792 85.1625C96.5724 82.4733 103.779 83.0161 109.628 86.5688C113.601 89.7515 118.562 91.2565 123.547 90.9111C124.682 90.8371 125.817 90.6644 126.953 90.3683L205.631 71.0254L200.571 59.6763L238.38 65.6469Z" fill="#6457A4"/>
<path opacity="0.4" d="M313.917 4.30652L310.971 35.2924L301.998 27.936L237.627 98.4633C233.974 102.447 228.906 104.791 223.509 104.996L222.879 105.022C216.066 105.263 209.922 109.215 206.898 115.349L189.663 150.244L178.386 141.646L206.099 99.5496C209.926 93.7472 216.324 90.2775 223.334 90.2034C228.521 90.8109 233.618 89.4187 237.635 86.4042C238.568 85.7113 239.413 84.9283 240.218 84.0832L295.985 24.0124L285.176 16.8171L313.917 4.30652Z" fill="white"/>
<path opacity="0.5" d="M154.223 244.494C154.223 244.494 155.334 239.313 149.559 238.795C149.559 238.795 148.547 243.113 154.223 244.494Z" fill="#6457A4"/>
<path d="M154.47 246.419C154.47 246.419 158.863 247.357 159.283 242.447C159.283 242.422 155.605 241.583 154.47 246.419Z" fill="#6457A4"/>
<path d="M154.149 243.804C154.149 243.804 155.383 250.194 154.421 253.376" stroke="#6457A4" stroke-miterlimit="10" stroke-linecap="round" stroke-linejoin="round"/>
<path d="M210.443 236.278C210.443 236.278 205.236 235.291 207.013 229.74C207.013 229.74 211.381 230.505 210.443 236.278Z" fill="#6457A4"/>
<path opacity="0.5" d="M211.06 230.012C211.258 229.79 210.69 228.507 210.591 228.235C209.703 225.423 210.517 221.623 213.034 219.847C213.133 221.006 213.207 222.117 213.479 223.251C213.923 225.028 213.725 226.015 212.738 227.495C212.195 228.383 211.776 229.222 211.06 230.012Z" fill="#6457A4"/>
<path opacity="0.5" d="M210.369 241.584C210.369 241.584 209.258 236.402 215.033 235.884C215.033 235.884 216.07 240.202 210.369 241.584Z" fill="#6457A4"/>
<path d="M210.32 246.369C210.32 246.369 205.927 247.307 205.507 242.397C205.482 242.372 209.16 241.534 210.32 246.369Z" fill="#6457A4"/>
<path d="M212.368 221.623C212.368 221.623 209.431 234.847 210.394 253.327" stroke="#6457A4" stroke-miterlimit="10" stroke-linecap="round" stroke-linejoin="round"/>
<path d="M267.699 202.995C267.699 202.995 269.896 198.16 264.343 196.433C264.343 196.433 262.442 200.43 267.699 202.995Z" fill="#6457A4"/>
<path opacity="0.5" d="M268.933 212.988C268.884 212.766 269.797 212.125 269.945 211.977C271.648 210.447 272.635 207.561 271.648 205.365C271.105 206.105 270.636 206.82 269.97 207.487C268.958 208.498 268.686 209.238 268.76 210.645C268.834 211.434 268.76 212.174 268.933 212.988Z" fill="#6457A4"/>
<path opacity="0.5" d="M270.069 240.547C270.069 240.547 271.179 235.366 265.404 234.848C265.404 234.848 264.392 239.166 270.069 240.547Z" fill="#6457A4"/>
<path d="M269.896 222.289C269.896 222.289 269.772 216.985 264.022 217.848C263.997 217.873 264.047 222.314 269.896 222.289Z" fill="#6457A4"/>
<path d="M270.216 232.257C270.216 232.257 275.424 231.245 273.622 225.719C273.647 225.719 269.279 226.484 270.216 232.257Z" fill="#6457A4"/>
<path d="M270.142 245.062C270.142 245.062 274.535 246 274.955 241.09C274.955 241.09 271.278 240.251 270.142 245.062Z" fill="#6457A4"/>
<path d="M267.304 201.664C267.304 201.664 272.092 222.931 269.624 253.327" stroke="#6457A4" stroke-miterlimit="10" stroke-linecap="round" stroke-linejoin="round"/>
<path d="M335.864 202.995C335.864 202.995 333.667 198.16 339.22 196.433C339.195 196.433 341.12 200.43 335.864 202.995Z" fill="#6457A4"/>
<path opacity="0.5" d="M334.63 212.988C334.679 212.766 333.766 212.125 333.618 211.977C331.915 210.447 330.928 207.561 331.915 205.365C332.458 206.105 332.927 206.82 333.593 207.487C334.605 208.498 336.086 209.238 336.012 210.645C335.938 211.434 334.778 212.174 334.63 212.988Z" fill="#6457A4"/>
<path opacity="0.5" d="M337.641 192.042C337.69 191.82 336.777 191.179 336.629 191.031C334.926 189.501 333.939 186.614 334.926 184.418C335.469 185.159 335.938 185.874 336.604 186.54C337.616 187.552 337.887 188.292 337.813 189.698C337.739 190.512 337.813 191.253 337.641 192.042Z" fill="#6457A4"/>
<path opacity="0.5" d="M333.494 240.547C333.494 240.547 332.384 235.366 338.159 234.848C338.159 234.848 339.171 239.166 333.494 240.547Z" fill="#6457A4"/>
<path d="M333.865 222.289C333.865 222.289 333.988 216.985 339.738 217.848C339.738 217.873 340.257 222.314 333.865 222.289Z" fill="#6457A4"/>
<path d="M338.702 182.79C338.702 182.79 337.344 177.658 343.095 176.869C343.095 176.893 344.822 180.989 338.702 182.79Z" fill="#6457A4"/>
<path d="M333.322 232.257C333.322 232.257 328.114 231.245 329.916 225.719C329.916 225.719 334.284 226.484 333.322 232.257Z" fill="#6457A4"/>
<path d="M333.42 245.062C333.42 245.062 329.028 246 328.608 241.09C328.583 241.09 332.261 240.251 333.42 245.062Z" fill="#6457A4"/>
<path opacity="0.5" d="M340.528 170.256C340.528 170.256 338.455 165.544 343.86 163.94C343.86 163.94 345.661 167.838 340.528 170.256Z" fill="#6457A4"/>
<path d="M340.948 169.097C340.948 169.097 331.446 222.956 333.914 253.327" stroke="#6457A4" stroke-miterlimit="10" stroke-linecap="round" stroke-linejoin="round"/>
<g filter="url(#filter1_d_17_219)">
<path opacity="0.2" d="M141.217 210.595H109.726V253.377H141.217V210.595Z" fill="#6457A4"/>
<path opacity="0.5" d="M117.303 205.463L109.726 210.595H141.193L148.769 205.463H117.303Z" fill="#6457A4"/>
<path d="M141.193 253.376L148.769 248.244V205.463L141.193 210.595V253.376Z" fill="#4E4688"/>
<path opacity="0.2" d="M193.488 191.154H161.997V253.377H193.488V191.154Z" fill="#6457A4"/>
<path opacity="0.5" d="M169.574 186.318L161.997 191.154H193.464L201.04 186.318H169.574Z" fill="#6457A4"/>
<path d="M193.464 253.377L201.04 246.468V188.736V186.318L193.464 191.154V253.377Z" fill="#4E4688"/>
<path opacity="0.2" d="M253.533 161.917H222.042V253.253H253.533V161.917Z" fill="#6457A4"/>
<path opacity="0.5" d="M229.619 157.057L222.042 161.917H253.533L261.11 157.057H229.619Z" fill="#6457A4"/>
<path d="M253.533 253.376L261.11 246.468V159.499V157.057L253.533 161.917V253.376Z" fill="#4E4688"/>
<path opacity="0.2" d="M312.838 126.438H281.347V253.376H312.838V126.438Z" fill="#6457A4"/>
<path d="M288.924 121.603L281.347 126.439H312.813L320.39 121.603H288.924Z" fill="#4E4688"/>
<path d="M312.813 253.377L320.39 246.468V124.021V121.603L312.813 126.439V253.377Z" fill="#4E4688"/>
<path d="M296.747 199.517C301.695 199.517 305.705 195.508 305.705 190.561C305.705 185.615 301.695 181.605 296.747 181.605C291.799 181.605 287.788 185.615 287.788 190.561C287.788 195.508 291.799 199.517 296.747 199.517Z" fill="#FCB713"/>
<path d="M296.327 195.816C295.932 195.792 295.587 195.718 295.291 195.644C294.995 195.545 294.723 195.446 294.501 195.323C294.279 195.2 294.081 195.101 293.958 194.978C293.81 194.854 293.711 194.78 293.637 194.731C293.563 194.657 293.514 194.607 293.514 194.558C293.489 194.509 293.514 194.41 293.588 194.311L294.131 193.448C294.18 193.349 294.254 193.3 294.353 193.3C294.452 193.3 294.55 193.349 294.698 193.473C294.921 193.645 295.167 193.818 295.464 193.966C295.76 194.114 296.056 194.213 296.352 194.262V191.499C296.031 191.375 295.686 191.203 295.365 191.055C295.044 190.882 294.723 190.685 294.452 190.438C294.18 190.191 293.958 189.895 293.785 189.574C293.613 189.229 293.539 188.834 293.539 188.365C293.539 188.02 293.588 187.699 293.711 187.403C293.81 187.107 293.983 186.811 294.23 186.589C294.452 186.342 294.748 186.145 295.118 185.997C295.464 185.824 295.883 185.726 296.377 185.701V185.257C296.377 185.183 296.401 185.109 296.451 185.059C296.5 185.01 296.574 184.985 296.648 184.985H296.821C296.895 184.985 296.969 185.01 297.018 185.059C297.068 185.109 297.092 185.183 297.092 185.257V185.726C297.413 185.75 297.709 185.8 297.981 185.898C298.252 185.972 298.499 186.071 298.721 186.17C298.943 186.268 299.116 186.367 299.264 186.466C299.412 186.564 299.511 186.614 299.585 186.663C299.659 186.712 299.708 186.786 299.708 186.885C299.733 186.984 299.708 187.058 299.659 187.132L299.091 187.946C298.968 188.119 298.845 188.143 298.697 188.069C298.499 187.946 298.252 187.798 297.981 187.65C297.709 187.502 297.413 187.379 297.068 187.305V189.895C297.389 190.018 297.709 190.191 298.055 190.364C298.4 190.537 298.721 190.759 299.017 191.005C299.314 191.252 299.536 191.573 299.733 191.918C299.931 192.264 300.029 192.658 300.029 193.127C300.029 193.892 299.782 194.558 299.264 195.076C298.746 195.594 298.03 195.89 297.068 195.94V197.42C297.068 197.494 297.043 197.568 296.994 197.593C296.944 197.642 296.87 197.667 296.796 197.667C296.722 197.667 296.623 197.667 296.5 197.642C296.401 197.617 296.352 197.543 296.352 197.42V195.816H296.327ZM296.327 187.181C295.957 187.231 295.686 187.354 295.513 187.527C295.34 187.724 295.241 187.946 295.241 188.217C295.241 188.513 295.34 188.736 295.513 188.933C295.686 189.106 295.957 189.303 296.327 189.5V187.181ZM297.043 194.262C297.364 194.213 297.635 194.114 297.833 193.941C298.03 193.769 298.129 193.522 298.129 193.201C298.129 192.93 298.055 192.658 297.882 192.412C297.709 192.165 297.438 191.943 297.043 191.745V194.262Z" fill="#F6F7F7"/>
<path opacity="0.9" d="M246.475 189.821C246.475 195.101 243.612 199.369 240.083 199.369C239.96 199.369 239.836 199.369 239.688 199.344H236.875C237.418 199.344 237.936 199.246 238.454 199.048C239.17 198.777 239.836 198.333 240.429 197.716C242.131 196.014 243.242 193.102 243.242 189.796C243.242 186.49 242.131 183.603 240.429 181.876C239.836 181.284 239.17 180.84 238.454 180.544C237.936 180.347 237.418 180.248 236.85 180.248H240.034C240.157 180.248 240.28 180.248 240.404 180.273C243.81 180.569 246.475 184.738 246.475 189.821Z" fill="#F37C20"/>
<path d="M243.291 189.822C243.291 193.128 242.181 196.014 240.478 197.741C239.886 198.333 239.219 198.802 238.504 199.074C238.01 199.271 237.467 199.37 236.924 199.37C236.825 199.37 236.727 199.37 236.628 199.37C233.247 199.148 230.532 194.953 230.532 189.846C230.532 184.739 233.222 180.545 236.628 180.323C236.727 180.323 236.825 180.323 236.924 180.323C237.467 180.323 238.01 180.421 238.528 180.619C239.244 180.89 239.91 181.334 240.503 181.951C242.156 183.604 243.291 186.515 243.291 189.822Z" fill="#FCB713"/>
<path d="M236.603 195.397C236.332 195.373 236.085 195.299 235.863 195.2C235.641 195.101 235.468 194.978 235.295 194.879C235.122 194.781 234.999 194.633 234.9 194.509C234.802 194.386 234.728 194.287 234.678 194.238C234.629 194.164 234.604 194.09 234.58 194.04C234.555 193.991 234.58 193.892 234.629 193.794L235.024 192.881C235.073 192.782 235.122 192.733 235.172 192.733C235.246 192.733 235.32 192.782 235.419 192.93C235.567 193.128 235.764 193.3 235.962 193.448C236.159 193.596 236.381 193.695 236.603 193.744V190.784C236.356 190.636 236.134 190.488 235.888 190.29C235.641 190.118 235.443 189.896 235.246 189.624C235.048 189.377 234.9 189.057 234.777 188.711C234.654 188.366 234.604 187.922 234.604 187.428C234.604 187.058 234.654 186.713 234.728 186.392C234.802 186.071 234.925 185.775 235.098 185.504C235.271 185.257 235.468 185.035 235.715 184.862C235.962 184.69 236.258 184.591 236.603 184.542V184.048C236.603 183.974 236.628 183.9 236.653 183.851C236.702 183.802 236.727 183.777 236.801 183.777H236.924C236.973 183.777 237.023 183.802 237.072 183.851C237.097 183.9 237.121 183.974 237.121 184.048V184.542C237.344 184.566 237.566 184.64 237.763 184.714C237.961 184.788 238.133 184.887 238.306 185.01C238.454 185.109 238.602 185.208 238.701 185.307C238.8 185.405 238.874 185.479 238.923 185.529C238.972 185.578 238.997 185.652 239.022 185.751C239.022 185.849 239.022 185.948 238.997 186.022L238.602 186.91C238.504 187.083 238.429 187.132 238.331 187.034C238.183 186.886 238.01 186.738 237.812 186.589C237.615 186.417 237.393 186.318 237.171 186.219V188.983C237.393 189.131 237.64 189.279 237.887 189.476C238.133 189.673 238.355 189.896 238.553 190.167C238.75 190.438 238.923 190.759 239.071 191.129C239.219 191.499 239.269 191.919 239.269 192.412C239.269 193.251 239.096 193.917 238.726 194.485C238.355 195.027 237.837 195.348 237.171 195.397V196.976C237.171 197.05 237.146 197.124 237.121 197.174C237.072 197.223 237.023 197.248 236.973 197.248C236.924 197.248 236.85 197.223 236.776 197.198C236.702 197.174 236.653 197.1 236.653 196.976V195.397H236.603ZM236.603 186.219C236.356 186.269 236.159 186.392 236.036 186.589C235.912 186.787 235.838 187.034 235.838 187.33C235.838 187.626 235.912 187.872 236.036 188.07C236.159 188.267 236.356 188.465 236.603 188.662V186.219ZM237.121 193.769C237.344 193.72 237.541 193.621 237.689 193.448C237.837 193.276 237.911 193.004 237.911 192.659C237.911 192.363 237.862 192.091 237.738 191.82C237.615 191.549 237.418 191.327 237.146 191.104V193.769H237.121Z" fill="#F6F7F7"/>
<path opacity="0.9" d="M304.348 229.001C304.348 234.28 301.485 238.549 297.956 238.549C297.833 238.549 297.709 238.549 297.561 238.524H294.748C295.291 238.524 295.809 238.425 296.327 238.228C297.043 237.956 297.709 237.512 298.302 236.896C300.005 235.193 301.115 232.282 301.115 228.976C301.115 225.67 300.005 222.783 298.302 221.056C297.709 220.464 297.043 220.02 296.327 219.724C295.809 219.526 295.291 219.428 294.723 219.428H297.907C298.03 219.428 298.154 219.428 298.277 219.452C301.683 219.748 304.348 223.918 304.348 229.001Z" fill="#F37C20"/>
<path d="M301.164 229.001C301.164 232.307 300.054 235.194 298.351 236.921C297.759 237.513 297.092 237.982 296.377 238.253C295.883 238.451 295.34 238.549 294.797 238.549C294.698 238.549 294.6 238.549 294.501 238.549C291.12 238.327 288.405 234.133 288.405 229.026C288.405 223.919 291.095 219.724 294.501 219.502C294.6 219.502 294.698 219.502 294.797 219.502C295.34 219.502 295.883 219.601 296.401 219.799C297.117 220.07 297.783 220.514 298.376 221.131C300.054 222.784 301.164 225.695 301.164 229.001Z" fill="#FCB713"/>
<path d="M294.476 234.577C294.205 234.552 293.958 234.478 293.736 234.38C293.514 234.281 293.341 234.158 293.168 234.059C292.996 233.936 292.872 233.812 292.774 233.689C292.675 233.566 292.601 233.467 292.551 233.418C292.502 233.343 292.477 233.269 292.453 233.22C292.428 233.171 292.453 233.072 292.502 232.973L292.897 232.061C292.946 231.962 292.996 231.913 293.045 231.913C293.119 231.913 293.193 231.962 293.292 232.11C293.44 232.307 293.637 232.48 293.835 232.628C294.032 232.776 294.254 232.875 294.476 232.924V229.963C294.23 229.815 294.008 229.667 293.761 229.47C293.514 229.297 293.317 229.075 293.119 228.804C292.922 228.557 292.774 228.236 292.65 227.891C292.527 227.546 292.477 227.101 292.477 226.608C292.477 226.238 292.527 225.893 292.601 225.572C292.675 225.251 292.798 224.955 292.971 224.684C293.144 224.437 293.341 224.215 293.588 224.042C293.835 223.869 294.131 223.771 294.476 223.721V223.228C294.476 223.154 294.501 223.08 294.526 223.031C294.575 222.981 294.6 222.957 294.674 222.957H294.797C294.847 222.957 294.896 222.981 294.945 223.031C294.97 223.08 294.995 223.154 294.995 223.228V223.721C295.217 223.746 295.439 223.82 295.636 223.894C295.834 223.968 296.007 224.067 296.179 224.19C296.352 224.314 296.475 224.388 296.574 224.486C296.673 224.585 296.747 224.659 296.796 224.708C296.846 224.758 296.87 224.832 296.895 224.93C296.895 225.029 296.895 225.128 296.87 225.202L296.475 226.09C296.377 226.263 296.303 226.312 296.204 226.213C296.056 226.065 295.883 225.917 295.686 225.769C295.488 225.596 295.266 225.498 295.044 225.399V228.162C295.266 228.31 295.513 228.458 295.76 228.656C296.007 228.853 296.229 229.075 296.426 229.347C296.624 229.618 296.796 229.939 296.944 230.309C297.092 230.679 297.142 231.098 297.142 231.592C297.142 232.431 296.969 233.097 296.599 233.664C296.229 234.207 295.71 234.528 295.044 234.577V236.156C295.044 236.23 295.019 236.304 294.995 236.353C294.945 236.403 294.896 236.428 294.847 236.428C294.797 236.428 294.723 236.403 294.649 236.378C294.575 236.353 294.526 236.279 294.526 236.156V234.577H294.476ZM294.476 225.399C294.23 225.448 294.032 225.572 293.909 225.769C293.785 225.967 293.711 226.213 293.711 226.509C293.711 226.805 293.785 227.052 293.909 227.249C294.032 227.447 294.23 227.644 294.476 227.842V225.399ZM294.995 232.924C295.217 232.875 295.414 232.776 295.562 232.603C295.71 232.431 295.784 232.159 295.784 231.814C295.784 231.518 295.735 231.246 295.612 230.975C295.488 230.704 295.291 230.482 295.019 230.259V232.924H294.995Z" fill="#F6F7F7"/>
<path opacity="0.9" d="M183.691 221.624C183.691 227.249 182.16 231.813 180.285 231.813H177.126C177.694 231.813 178.261 231.418 178.73 230.703C179.396 229.741 179.939 228.211 180.285 226.336C180.532 224.93 180.68 223.326 180.68 221.624C180.68 219.921 180.532 218.318 180.285 216.911C179.939 215.036 179.396 213.507 178.73 212.544C178.261 211.854 177.694 211.434 177.126 211.434H180.285C182.16 211.434 183.691 215.998 183.691 221.624Z" fill="#F37C20"/>
<path d="M180.68 221.624C180.68 223.326 180.532 224.93 180.285 226.336C179.939 228.211 179.396 229.741 178.73 230.703C178.261 231.394 177.694 231.813 177.126 231.813H177.101C175.127 231.813 173.523 227.249 173.523 221.624C173.523 215.998 175.127 211.434 177.101 211.434H177.126C177.694 211.434 178.261 211.829 178.73 212.544C179.396 213.507 179.939 215.036 180.285 216.911C180.532 218.318 180.68 219.921 180.68 221.624Z" fill="#FCB713"/>
<path d="M176.928 227.595C176.78 227.57 176.632 227.496 176.509 227.373C176.386 227.274 176.287 227.151 176.188 227.027C176.089 226.904 176.015 226.781 175.966 226.633C175.917 226.509 175.867 226.411 175.843 226.337C175.818 226.263 175.793 226.189 175.793 226.115C175.793 226.041 175.793 225.967 175.818 225.843L176.04 224.881C176.065 224.782 176.089 224.708 176.139 224.708C176.163 224.708 176.213 224.782 176.287 224.906C176.386 225.103 176.484 225.3 176.583 225.448C176.706 225.621 176.805 225.72 176.928 225.769V222.611C176.805 222.463 176.657 222.29 176.534 222.093C176.41 221.896 176.287 221.674 176.163 221.402C176.065 221.131 175.966 220.81 175.892 220.415C175.818 220.045 175.793 219.576 175.793 219.034C175.793 218.639 175.818 218.269 175.867 217.923C175.917 217.578 175.991 217.257 176.065 216.986C176.163 216.715 176.262 216.492 176.41 216.295C176.558 216.122 176.731 215.999 176.904 215.95V215.432C176.904 215.358 176.904 215.284 176.928 215.21C176.953 215.16 176.978 215.111 177.003 215.111H177.077C177.101 215.111 177.126 215.136 177.151 215.21C177.175 215.259 177.175 215.333 177.175 215.432V215.974C177.299 215.999 177.422 216.073 177.521 216.172C177.644 216.27 177.743 216.369 177.817 216.468C177.916 216.591 177.965 216.69 178.039 216.789C178.088 216.887 178.138 216.961 178.162 217.011C178.187 217.06 178.212 217.134 178.212 217.257C178.212 217.356 178.212 217.455 178.187 217.553L177.965 218.491C177.916 218.688 177.866 218.738 177.817 218.614C177.743 218.466 177.644 218.294 177.545 218.121C177.447 217.948 177.323 217.825 177.175 217.726V220.687C177.299 220.835 177.422 221.007 177.57 221.205C177.718 221.402 177.842 221.649 177.94 221.945C178.064 222.241 178.162 222.586 178.237 222.981C178.311 223.376 178.36 223.845 178.36 224.363C178.36 225.251 178.261 225.991 178.064 226.559C177.866 227.151 177.57 227.472 177.2 227.546V229.223C177.2 229.297 177.2 229.371 177.175 229.445C177.151 229.495 177.126 229.519 177.101 229.519C177.077 229.519 177.027 229.495 176.978 229.47C176.928 229.445 176.904 229.371 176.904 229.223V227.595H176.928ZM176.928 217.8C176.78 217.849 176.682 217.997 176.608 218.195C176.534 218.417 176.509 218.664 176.509 218.984C176.509 219.305 176.534 219.576 176.608 219.774C176.682 219.996 176.78 220.193 176.928 220.415V217.8ZM177.225 225.843C177.348 225.794 177.447 225.67 177.545 225.498C177.62 225.3 177.669 225.029 177.669 224.659C177.669 224.338 177.644 224.042 177.57 223.771C177.496 223.499 177.397 223.228 177.225 223.006V225.843Z" fill="#F6F7F7"/>
<path opacity="0.9" d="M242.255 228.334C242.255 233.959 240.725 238.524 238.849 238.524H235.69C236.258 238.524 236.825 238.129 237.294 237.413C237.96 236.451 238.503 234.922 238.849 233.046C239.096 231.64 239.244 230.036 239.244 228.334C239.244 226.632 239.096 225.028 238.849 223.622C238.503 221.747 237.96 220.217 237.294 219.255C236.825 218.564 236.258 218.145 235.69 218.145H238.849C240.749 218.145 242.255 222.709 242.255 228.334Z" fill="#F37C20"/>
<path d="M239.269 228.334C239.269 230.036 239.121 231.64 238.874 233.046C238.528 234.922 237.985 236.451 237.319 237.413C236.85 238.104 236.282 238.524 235.715 238.524H235.69C233.716 238.524 232.112 233.959 232.112 228.334C232.112 222.709 233.716 218.145 235.69 218.145H235.715C236.282 218.145 236.85 218.539 237.319 219.255C237.985 220.217 238.528 221.747 238.874 223.622C239.121 225.028 239.269 226.632 239.269 228.334Z" fill="#FCB713"/>
<path d="M235.517 234.305C235.369 234.28 235.221 234.206 235.098 234.083C234.974 233.984 234.876 233.861 234.777 233.737C234.678 233.614 234.604 233.491 234.555 233.343C234.505 233.219 234.456 233.121 234.431 233.047C234.407 232.973 234.382 232.899 234.382 232.825C234.382 232.751 234.382 232.677 234.407 232.553L234.629 231.591C234.654 231.492 234.678 231.418 234.728 231.418C234.752 231.418 234.802 231.492 234.876 231.616C234.974 231.813 235.073 232.01 235.172 232.158C235.295 232.331 235.394 232.43 235.517 232.479V229.321C235.394 229.173 235.246 229 235.122 228.803C234.999 228.606 234.876 228.384 234.752 228.112C234.654 227.841 234.555 227.52 234.481 227.125C234.407 226.755 234.382 226.286 234.382 225.744C234.382 225.349 234.407 224.979 234.456 224.633C234.505 224.288 234.579 223.967 234.654 223.696C234.752 223.424 234.851 223.202 234.999 223.005C235.147 222.832 235.32 222.709 235.493 222.66V222.142C235.493 222.068 235.493 221.993 235.517 221.919C235.542 221.87 235.567 221.821 235.591 221.821H235.665C235.69 221.821 235.715 221.845 235.739 221.919C235.764 221.969 235.764 222.043 235.764 222.142V222.684C235.887 222.709 236.011 222.783 236.11 222.882C236.233 222.98 236.332 223.079 236.406 223.178C236.504 223.301 236.554 223.4 236.628 223.499C236.677 223.597 236.727 223.671 236.751 223.721C236.776 223.77 236.801 223.844 236.801 223.967C236.801 224.066 236.801 224.165 236.776 224.263L236.554 225.201C236.504 225.398 236.455 225.448 236.406 225.324C236.332 225.176 236.233 225.004 236.134 224.831C236.036 224.658 235.912 224.535 235.764 224.436V227.397C235.887 227.545 236.011 227.717 236.159 227.915C236.307 228.112 236.43 228.359 236.529 228.655C236.653 228.951 236.751 229.296 236.825 229.691C236.899 230.086 236.949 230.555 236.949 231.073C236.949 231.961 236.85 232.701 236.653 233.269C236.455 233.861 236.159 234.182 235.789 234.256V235.933C235.789 236.007 235.789 236.081 235.764 236.155C235.739 236.205 235.715 236.229 235.69 236.229C235.665 236.229 235.616 236.205 235.567 236.18C235.517 236.155 235.493 236.081 235.493 235.933V234.305H235.517ZM235.517 224.485C235.369 224.535 235.271 224.683 235.196 224.88C235.122 225.102 235.098 225.349 235.098 225.67C235.098 225.99 235.122 226.262 235.196 226.459C235.271 226.681 235.369 226.879 235.517 227.101V224.485ZM235.813 232.528C235.937 232.479 236.036 232.356 236.134 232.183C236.208 231.986 236.258 231.714 236.258 231.344C236.258 231.023 236.233 230.727 236.159 230.456C236.085 230.185 235.986 229.913 235.813 229.691V232.528Z" fill="#F6F7F7"/>
<path opacity="0.9" d="M303.558 152.936C303.558 158.561 302.028 163.125 300.153 163.125H296.994C297.561 163.125 298.129 162.73 298.598 162.015C299.264 161.053 299.807 159.523 300.153 157.648C300.399 156.242 300.547 154.638 300.547 152.936C300.547 151.233 300.399 149.63 300.153 148.223C299.807 146.348 299.264 144.819 298.598 143.856C298.129 143.166 297.561 142.746 296.994 142.746H300.153C302.028 142.746 303.558 147.31 303.558 152.936Z" fill="#F37C20"/>
<path d="M300.547 152.936C300.547 154.639 300.399 156.242 300.153 157.649C299.807 159.524 299.264 161.053 298.598 162.015C298.129 162.706 297.561 163.126 296.994 163.126H296.969C294.995 163.126 293.39 158.561 293.39 152.936C293.39 147.311 294.995 142.747 296.969 142.747H296.994C297.561 142.747 298.129 143.141 298.598 143.857C299.264 144.819 299.807 146.349 300.153 148.224C300.399 149.63 300.547 151.234 300.547 152.936Z" fill="#FCB713"/>
<path d="M296.821 158.906C296.673 158.882 296.525 158.808 296.401 158.684C296.278 158.586 296.179 158.462 296.081 158.339C295.982 158.216 295.908 158.092 295.858 157.944C295.809 157.821 295.76 157.722 295.735 157.648C295.71 157.574 295.686 157.5 295.686 157.426C295.686 157.352 295.686 157.278 295.71 157.155L295.933 156.193C295.957 156.094 295.982 156.02 296.031 156.02C296.056 156.02 296.105 156.094 296.179 156.217C296.278 156.415 296.377 156.612 296.475 156.76C296.599 156.933 296.698 157.031 296.821 157.081V153.923C296.698 153.775 296.549 153.602 296.426 153.405C296.303 153.207 296.179 152.985 296.056 152.714C295.957 152.442 295.858 152.122 295.784 151.727C295.71 151.357 295.686 150.888 295.686 150.345C295.686 149.95 295.71 149.58 295.76 149.235C295.809 148.89 295.883 148.569 295.957 148.297C296.056 148.026 296.155 147.804 296.303 147.607C296.451 147.434 296.624 147.311 296.796 147.261V146.743C296.796 146.669 296.796 146.595 296.821 146.521C296.846 146.472 296.87 146.422 296.895 146.422H296.969C296.994 146.422 297.018 146.447 297.043 146.521C297.068 146.57 297.068 146.644 297.068 146.743V147.286C297.191 147.311 297.314 147.385 297.413 147.483C297.537 147.582 297.635 147.681 297.709 147.779C297.808 147.903 297.857 148.001 297.931 148.1C297.981 148.199 298.03 148.273 298.055 148.322C298.08 148.371 298.104 148.445 298.104 148.569C298.104 148.668 298.104 148.766 298.08 148.865L297.857 149.802C297.808 150 297.759 150.049 297.709 149.926C297.635 149.778 297.537 149.605 297.438 149.432C297.339 149.26 297.216 149.136 297.068 149.038V151.998C297.191 152.146 297.314 152.319 297.463 152.516C297.611 152.714 297.734 152.96 297.833 153.257C297.956 153.553 298.055 153.898 298.129 154.293C298.203 154.688 298.252 155.156 298.252 155.674C298.252 156.563 298.154 157.303 297.956 157.87C297.759 158.462 297.463 158.783 297.092 158.857V160.535C297.092 160.609 297.092 160.683 297.068 160.757C297.043 160.806 297.018 160.831 296.994 160.831C296.969 160.831 296.92 160.806 296.87 160.782C296.821 160.757 296.796 160.683 296.796 160.535V158.906H296.821ZM296.821 149.112C296.673 149.161 296.574 149.309 296.5 149.506C296.426 149.728 296.401 149.975 296.401 150.296C296.401 150.617 296.426 150.888 296.5 151.085C296.574 151.307 296.673 151.505 296.821 151.727V149.112ZM297.092 157.155C297.216 157.105 297.314 156.982 297.413 156.809C297.487 156.612 297.537 156.341 297.537 155.97C297.537 155.65 297.512 155.354 297.438 155.082C297.364 154.811 297.265 154.539 297.092 154.317V157.155Z" fill="#F6F7F7"/>
<path d="M125.472 240.03C130.42 240.03 134.431 236.02 134.431 231.074C134.431 226.127 130.42 222.118 125.472 222.118C120.524 222.118 116.513 226.127 116.513 231.074C116.513 236.02 120.524 240.03 125.472 240.03Z" fill="#FCB713"/>
<path d="M125.052 236.33C124.657 236.305 124.312 236.231 124.016 236.157C123.72 236.058 123.448 235.96 123.226 235.836C123.004 235.713 122.806 235.614 122.683 235.491C122.535 235.367 122.436 235.293 122.362 235.244C122.288 235.17 122.239 235.121 122.239 235.071C122.214 235.022 122.239 234.923 122.313 234.825L122.856 233.961C122.905 233.862 122.979 233.813 123.078 233.813C123.177 233.813 123.275 233.862 123.423 233.986C123.646 234.158 123.892 234.331 124.189 234.479C124.485 234.627 124.781 234.726 125.077 234.775V232.012C124.756 231.889 124.411 231.716 124.09 231.568C123.769 231.395 123.448 231.198 123.177 230.951C122.905 230.704 122.683 230.408 122.51 230.088C122.338 229.742 122.264 229.347 122.264 228.879C122.264 228.533 122.313 228.212 122.436 227.916C122.535 227.62 122.708 227.324 122.955 227.102C123.177 226.855 123.473 226.658 123.843 226.51C124.189 226.337 124.608 226.239 125.102 226.214V225.77C125.102 225.696 125.126 225.622 125.176 225.573C125.225 225.523 125.299 225.499 125.373 225.499H125.546C125.62 225.499 125.694 225.523 125.743 225.573C125.793 225.622 125.817 225.696 125.817 225.77V226.239C126.138 226.263 126.434 226.313 126.706 226.411C126.977 226.485 127.224 226.584 127.446 226.683C127.668 226.781 127.841 226.88 127.989 226.979C128.137 227.078 128.236 227.127 128.31 227.176C128.384 227.226 128.433 227.3 128.433 227.398C128.458 227.497 128.433 227.571 128.384 227.645L127.816 228.459C127.693 228.632 127.57 228.657 127.422 228.583C127.224 228.459 126.977 228.311 126.706 228.163C126.434 228.015 126.138 227.892 125.793 227.818V230.408C126.114 230.532 126.434 230.704 126.78 230.877C127.125 231.05 127.446 231.272 127.742 231.519C128.039 231.765 128.261 232.086 128.458 232.431C128.656 232.777 128.754 233.172 128.754 233.64C128.754 234.405 128.507 235.071 127.989 235.589C127.471 236.108 126.755 236.404 125.793 236.453V237.933C125.793 238.007 125.768 238.081 125.719 238.106C125.669 238.155 125.595 238.18 125.521 238.18C125.447 238.18 125.348 238.18 125.225 238.155C125.126 238.131 125.077 238.057 125.077 237.933V236.33H125.052ZM125.052 227.694C124.682 227.744 124.411 227.867 124.238 228.04C124.065 228.237 123.966 228.459 123.966 228.731C123.966 229.027 124.065 229.249 124.238 229.446C124.411 229.619 124.682 229.816 125.052 230.014V227.694ZM125.768 234.775C126.089 234.726 126.36 234.627 126.558 234.455C126.755 234.282 126.854 234.035 126.854 233.714C126.854 233.443 126.78 233.172 126.607 232.925C126.434 232.678 126.163 232.456 125.768 232.259V234.775Z" fill="#F6F7F7"/>
</g>
<path d="M159.061 98.0161C158.838 98.5589 158.518 99.0276 158.098 99.4224C157.703 99.8172 157.21 100.138 156.667 100.36L150.398 102.827C150.102 102.951 150.151 103.395 150.472 103.444L152.792 103.814C153.483 103.913 153.779 104.727 153.335 105.27C153.261 105.368 153.138 105.418 153.014 105.418H152.989L146.622 105.023L145.462 104.949C144.475 104.9 143.488 105.023 142.55 105.344L139.835 106.257L140.354 100.878L140.428 100.138L150.99 97.0045C151.558 96.8318 152.15 96.7578 152.743 96.7578L158.271 96.8318C158.888 96.8072 159.283 97.4486 159.061 98.0161Z" fill="#F28389"/>
<path d="M146.622 104.999L145.462 104.925C144.475 104.875 143.488 104.999 142.55 105.319L141.44 105.689C141.908 104.974 142.205 104.11 142.205 103.198V100.41C142.797 101.026 143.093 102.482 143.833 102.877C144.278 103.124 144.821 103.148 145.24 103.395C145.512 103.568 145.734 103.814 145.931 104.061C146.203 104.357 146.449 104.678 146.622 104.999Z" fill="#F16B6C"/>
<path d="M128.187 187.946L125.373 197.297L123.942 202.034L123.769 202.676L121.869 202.256L121.4 202.133L118.414 201.467L118.512 199.764L119.006 191.82L119.179 188.958L128.187 187.946Z" fill="#F28389"/>
<path d="M127.101 198.333C126.212 199.296 125.817 200.653 124.83 201.516C124.559 201.738 124.263 201.911 123.942 202.059C123.3 202.33 122.56 202.38 121.869 202.256C121.696 202.232 121.548 202.182 121.375 202.158C121.153 202.084 120.931 202.01 120.733 201.911C119.796 201.467 119.055 200.677 118.512 199.789L119.006 191.845C119.253 191.894 119.5 191.993 119.746 192.19C120.882 193.078 121.696 194.411 122.807 195.348C123.004 195.521 124.263 196.508 125.349 197.322C126.237 197.939 127.002 198.432 127.101 198.333Z" fill="#F16B6C"/>
<path d="M40.9944 235.958L31.5422 242.792L28.9015 244.692L24.2124 242.57L25.2736 241.336L28.7534 237.364L36.1819 228.877L40.6735 235.489L40.9944 235.958Z" fill="#F28389"/>
<path d="M53.8277 179.188L42.9194 203.81L23.8916 195.397L15.1304 191.524L13.082 190.611L4.1234 186.639L4 186.589L4.8391 184.714L5.72756 182.666L8.02274 177.51L9.38011 174.451L14.9083 161.942L28.556 168.011L33.6153 170.256L38.2056 172.279L38.8226 172.551L42.7713 174.303L46.6707 176.03L53.0626 178.842L53.2601 178.941L53.8277 179.188Z" fill="#E96924"/>
<path d="M40.9697 235.983L31.5175 242.793C30.7278 242.966 29.9627 243.138 29.173 243.311C27.9637 243.582 26.4582 243.755 25.7179 242.744C25.4217 242.349 25.323 241.831 25.2736 241.337L28.7534 237.365C32.2332 237.71 35.9104 237.513 39.02 236.23C39.1187 236.181 39.1928 236.156 39.2915 236.107L40.2787 236.452L40.9697 235.983Z" fill="#F16B6C"/>
<path d="M29.7406 161.054L34.2816 163.077L33.6399 164.113L29.79 162.411L27.5195 167.543L26.4089 167.049L28.9262 161.35C29.0743 161.054 29.4445 160.93 29.7406 161.054Z" fill="#A04323"/>
<path d="M44.6223 168.307L42.105 174.006L40.9944 173.513L43.2649 168.381L41.2659 167.493L39.7111 166.802L39.9826 165.692C39.9826 165.667 39.9826 165.618 39.9826 165.593L41.6854 166.333L44.3261 167.518C44.6223 167.641 44.7704 168.011 44.6223 168.307Z" fill="#A04323"/>
<path d="M39.9825 165.692L39.7111 166.802L38.5758 166.284L38.5511 166.26C38.7239 165.89 38.8966 165.519 39.0447 165.149L39.489 165.347L39.9825 165.569C39.9825 165.618 39.9825 165.643 39.9825 165.692Z" fill="#A04323"/>
<path opacity="0.5" d="M14.8589 162.041L19.7454 176.301C20.0416 177.14 20.6586 177.831 21.473 178.201L37.1444 185.134C37.9588 185.504 38.8966 185.504 39.7111 185.158L53.6796 179.138" fill="#FCB713"/>
<path d="M23.6941 181.729L23.2993 181.556C22.781 181.334 22.5342 180.717 22.781 180.199L23.5214 178.522C23.7435 178.004 24.3605 177.757 24.8788 178.004L25.2736 178.176C25.7919 178.398 26.0387 179.015 25.7919 179.533L25.0515 181.211C24.8294 181.704 24.2124 181.951 23.6941 181.729Z" fill="#A04323"/>
<path d="M33.5659 186.096L33.171 185.924C32.6528 185.701 32.406 185.085 32.6528 184.567L33.3932 182.889C33.6153 182.371 34.2323 182.124 34.7505 182.371L35.1454 182.543C35.6637 182.765 35.9105 183.382 35.6637 183.9L34.9233 185.578C34.7012 186.096 34.0842 186.318 33.5659 186.096Z" fill="#A04323"/>
<path opacity="0.15" d="M38.8226 172.551L5.72755 182.666L8.02274 177.51L32.6528 170.306L33.6153 170.256L38.2056 172.279L38.8226 172.551Z" fill="#F6F7F7"/>
<path d="M14.2913 161.67L4.41952 183.999C4.04932 184.862 3.99997 185.775 4.24676 186.614C4.24676 186.639 4.27144 186.688 4.27144 186.713C4.59227 187.699 5.30797 188.538 6.34451 188.982L39.9085 203.86C41.9569 204.773 44.3261 203.835 45.2392 201.787L55.0122 179.706L14.2913 161.67ZM44.5482 200.134C43.635 202.182 41.2658 203.095 39.2174 202.207L15.1304 191.548H15.1057L13.0573 190.635L7.45508 188.119C6.56662 187.724 5.90028 187.033 5.53009 186.194C5.11054 185.257 5.08586 184.147 5.53009 183.135L14.9083 161.966L53.0626 178.842L53.26 178.941L53.8276 179.188L44.5482 200.134Z" fill="#A04323"/>
<path opacity="0.15" d="M53.26 178.941L17.006 192.141L15.1304 191.499H15.1057L13.0573 190.586L7.4551 188.119C6.56664 187.724 5.9003 187.034 5.53011 186.195L42.7713 174.303L46.6706 176.03L53.0379 178.842L53.26 178.941Z" fill="#F6F7F7"/>
<path d="M138.404 155.7L127.891 190.636C127.594 191.622 126.731 192.338 125.719 192.437L122.733 193.103L117.994 194.213L120.018 165.519L95.6099 173.612C93.0926 174.673 91.1676 176.77 90.2545 179.336L81.9869 200.726L80.0372 205.784C79.0007 208.424 77.2484 210.719 74.9779 212.396C74.8792 212.47 74.7558 212.544 74.6571 212.618L41.0191 235.958L40.9944 235.983L40.3034 236.452L39.3162 236.106L36.1819 234.971L31.9124 233.417L58.887 204.871C59.6027 204.156 60.2443 203.391 60.7626 202.552C60.8119 202.478 60.8613 202.379 60.9107 202.305C61.6017 201.171 62.0953 199.962 62.4161 198.679L65.7478 184.986L66.661 181.235L70.6343 165.001L70.8565 164.088L103.162 153.159L105.827 152.246L109.652 150.79L109.726 150.765L128.211 143.709C129.1 143.364 130.013 143.216 130.926 143.216C133.616 143.216 136.183 144.647 137.59 147.089C139.046 149.705 139.366 152.813 138.404 155.7Z" fill="#4E4688"/>
<path opacity="0.2" d="M109.727 150.741C109.727 150.741 108.468 162.115 92.0808 169.073C85.1459 172.009 80.0126 175.315 75.9898 178.177L60.9107 202.281C61.6017 201.146 62.0953 199.937 62.4161 198.654L65.7479 184.961L66.661 181.211L70.6344 164.977L103.162 153.134L109.652 150.766L109.727 150.741Z" fill="black"/>
<path d="M100.126 122.689L100.817 160.511C100.817 160.511 94.8201 164.804 93.5615 164.656L92.8211 164.952L92.2782 165.174C92.2782 165.174 87.6138 167.666 87.367 167.765L85.1952 150.05L81.7401 121.973L80.3333 113.19L81.9869 113.042L82.8013 112.968L87.2436 112.548H87.2683H87.2929L98.1272 111.907L98.3493 111.882H98.448L98.9663 111.858L99.8547 111.808L100.891 111.463L102.076 111.068L102.397 110.945L103.581 110.451L104.124 110.229L105.284 109.736L105.852 114.325L100.126 122.689Z" fill="white"/>
<path d="M100.817 112.475C100.817 112.475 100.25 116.595 100.077 117.557C100.052 117.656 100.052 117.705 100.052 117.73C100.052 117.754 100.027 117.754 100.003 117.779C99.6079 118.075 96.7698 119.037 94.6227 119.753C93.216 120.222 92.1054 120.567 92.1054 120.567L84.9484 113.906C84.9484 113.906 84.282 113.437 86.7993 113.486C86.9227 113.486 86.6759 112.697 86.7253 112.549C86.7253 112.524 86.75 112.524 86.75 112.524C86.7993 112.524 86.8487 112.524 86.8981 112.524C87.0215 112.524 87.1449 112.524 87.2682 112.499C87.7865 112.401 88.2554 112.08 88.6503 111.636C89.2673 110.97 89.7362 110.007 90.1064 109.07C90.6987 107.565 90.9702 106.134 90.9702 106.134C90.9702 106.134 91.3157 105.714 91.8586 105.221C93.0185 104.135 95.0916 102.704 96.2269 104.703C96.5477 105.27 96.7945 106.084 96.9426 107.244C97.0413 108.058 97.1647 108.749 97.3128 109.366C97.5596 110.402 97.8804 111.142 98.2012 111.636C98.2506 111.71 98.2999 111.759 98.3246 111.833C99.4846 113.412 100.817 112.475 100.817 112.475Z" fill="#F28389"/>
<path d="M39.7111 166.803L41.2659 167.494L40.8216 168.776C40.7723 168.9 40.6736 168.999 40.5502 169.023C39.8838 169.221 39.2668 168.628 39.4149 167.962L39.7111 166.803Z" fill="#F16B6C"/>
<path d="M46.6213 156.958L45.6094 158.143L44.8444 159.006C44.1287 159.82 43.5857 160.758 43.2402 161.769L42.6479 163.472L41.6607 166.334L39.9579 165.594C39.9332 165.347 39.6617 165.223 39.4643 165.371C39.4396 165.371 39.4396 165.396 39.4149 165.396L38.5511 166.284L34.7258 170.257C34.331 170.676 33.8374 170.997 33.3191 171.219C32.8008 171.441 32.2332 171.564 31.6409 171.564C31.0239 171.564 30.6044 170.947 30.8265 170.355L32.8749 165.223C33.0476 164.804 33.2451 164.434 33.4919 164.064C33.5906 163.94 33.6646 163.817 33.7633 163.694L34.1829 163.2L40.7229 155.157L46.6213 156.958Z" fill="#F28389"/>
<path d="M98.448 111.266L94.4746 115.929C93.7096 116.817 92.3522 116.916 91.4637 116.151L87.2682 112.524L87.7865 118.372L92.8458 121.406L95.4371 122.122L97.6336 116.127L98.448 111.266Z" fill="#F16B6C"/>
<g opacity="0.15">
<path opacity="0.15" d="M88.6009 113.98L95.0916 120.395L92.4015 124.688L84.2573 114.399L88.6009 113.98Z" fill="#6457A4"/>
<path opacity="0.15" d="M105.259 109.711L103.038 117.779L102.94 119.062L99.3611 122.566L94.8201 120.123H94.7954L94.6967 120.074V120.024L94.7954 119.827L98.4233 111.883L98.9416 111.858L99.83 111.784L100.891 111.463L102.051 111.068L102.372 110.945L105.259 109.711Z" fill="#6457A4"/>
</g>
<path d="M94.524 119.753L91.7106 124.243L82.8013 112.968L87.2436 112.548H87.2683L94.524 119.753Z" fill="white"/>
<path d="M102.372 110.945L100.077 117.582L100.003 117.804L98.5961 121.899L95.1904 120.098L94.6227 119.802L94.524 119.753L98.1025 111.907L98.2013 111.71C98.2506 111.784 98.4974 111.734 98.5468 111.784H98.7195C98.8676 111.784 99.0404 111.784 99.1884 111.784C99.7561 111.759 100.324 111.66 100.867 111.463L102.051 111.068L102.372 110.945Z" fill="white"/>
<path d="M142.229 99.6196V103.765C142.229 104.677 141.958 105.541 141.464 106.256C140.946 107.046 140.156 107.687 139.218 108.033C135.516 109.365 129.964 112.227 124.534 115.212C118.586 118.494 112.762 121.973 109.677 123.848C108.098 124.81 106.962 126.34 106.543 128.141C103.754 140.205 109.184 152.196 109.184 152.196C109.184 152.196 108.32 153.602 106.962 155.28C105.26 157.402 102.792 159.943 100.324 160.658C99.2377 160.979 98.1519 160.116 98.1765 158.981L98.7195 130.213L98.7688 127.869C98.7688 127.844 98.7688 127.82 98.7688 127.82C98.8182 125.402 99.2871 123.009 100.151 120.764L104.272 109.957L108.147 108.896L142.229 99.6196Z" fill="#6457A4"/>
<path d="M108.147 108.922L98.7195 130.239L98.7688 127.895C98.7688 127.87 98.7688 127.845 98.7688 127.845C98.8182 125.428 99.2871 123.034 100.151 120.789L104.272 109.983L108.147 108.922Z" fill="#4E4688"/>
<path d="M93.9317 122.96L90.1804 144.228L93.9317 149.137L97.3128 143.66L96.2269 122.837L93.9317 122.96Z" fill="#FCB713"/>
<path d="M94.4993 124.589L92.13 129.967L89.7361 135.321L89.514 135.173L97.214 126.415L98.2752 125.206L97.5348 126.637L90.8961 139.639L90.5259 139.343L94.9682 135.124L99.4105 130.905L100.99 129.425L99.756 131.201L95.5605 137.344L93.4627 140.428L91.365 143.488L91.0935 143.241L100.496 136.925L101.187 136.456L100.644 137.073L94.4993 143.981L100.472 136.95L100.62 137.098L91.3156 143.537L90.5012 144.104L91.0441 143.29L93.1172 140.206L95.215 137.122L99.3858 130.954L99.7313 131.25L95.3137 135.469L90.8467 139.688L89.8348 140.65L90.4765 139.417L97.1646 126.464L97.5102 126.686L89.7114 135.346L89.1191 135.987L89.4893 135.198L91.982 129.893L94.4993 124.589Z" fill="#F6F7F7"/>
<path d="M94.2525 119.901L92.2782 121.998L93.7836 124.367L95.906 124.243L96.9426 121.307L94.2525 119.901Z" fill="#E96924"/>
<path d="M115.452 205.734C115.526 206.277 115.65 206.771 115.798 207.264C115.847 207.486 115.946 207.708 116.118 207.856C116.267 208.004 116.415 208.029 116.612 208.078C118.957 208.67 121.227 208.794 123.621 208.399C123.399 207.955 123.67 207.535 124.115 207.387C124.559 207.239 125.003 207.363 125.423 207.461C126.212 207.659 126.928 207.906 127.742 208.078C131.839 208.966 135.739 208.917 139.811 207.906C140.823 207.659 141.736 207.264 142.624 206.721C142.846 206.598 143.019 206.45 143.142 206.203C143.266 205.956 143.192 205.611 143.142 205.34C143.044 204.896 142.92 204.451 142.55 204.155C142.303 203.958 142.032 203.909 141.736 203.859C140.156 203.588 138.601 203.81 137.022 203.415C134.579 202.798 132.654 201.195 130.581 199.788C129.297 198.9 127.94 198.037 126.583 197.297C125.719 196.828 125.274 197.223 124.756 197.889C124.238 198.53 123.868 199.246 123.177 199.739C122.338 200.356 121.375 200.479 120.511 199.862C120.018 199.517 119.796 198.9 119.425 198.407C119.179 198.086 118.858 197.716 118.463 197.568C117.945 197.371 117.723 197.519 117.377 197.938C116.76 198.654 116.316 199.492 116.02 200.405C115.427 202.132 115.23 203.884 115.452 205.734Z" fill="#444445"/>
<path d="M136.824 208.473C136.898 208.449 136.972 208.449 137.047 208.424C137.022 208.325 136.997 208.227 136.972 208.128C136.898 208.153 136.824 208.153 136.75 208.177C136.775 208.276 136.8 208.375 136.824 208.473Z" fill="#444445"/>
<path d="M115.427 205.439C115.427 205.513 115.452 205.661 115.477 205.759C115.477 205.858 115.501 205.957 115.526 206.031C115.526 206.105 115.551 206.154 115.551 206.228C115.551 206.277 115.576 206.302 115.576 206.351C115.6 206.425 115.625 206.549 115.625 206.623C115.65 206.697 115.65 206.746 115.674 206.771C115.674 206.82 115.699 206.87 115.699 206.894C115.699 206.919 115.699 206.919 115.699 206.944C115.699 206.968 115.699 206.968 115.724 206.993C115.724 207.018 115.724 207.042 115.748 207.092C115.773 207.141 115.773 207.215 115.798 207.289C115.822 207.363 115.847 207.462 115.896 207.56C115.896 207.585 115.896 207.585 115.921 207.634C115.946 207.684 115.97 207.807 115.995 207.856C118.537 208.745 120.956 208.794 123.596 208.449C123.522 208.128 123.596 207.437 123.966 207.388C124.509 207.289 125.052 207.462 125.521 207.536C126.015 207.585 126.336 207.733 126.78 207.856C126.78 207.856 126.78 207.856 126.805 207.856C127.076 207.93 127.397 208.029 127.668 208.103C128.878 208.399 130.235 208.72 131.444 208.794C132.974 208.868 134.357 208.745 135.788 208.671C136.084 208.646 136.306 208.621 136.504 208.597C136.726 208.572 136.923 208.547 137.047 208.523C138.577 208.276 140.008 207.955 141.44 207.412C141.538 207.388 141.563 207.363 141.612 207.338C141.686 207.314 141.76 207.264 141.81 207.24C141.859 207.215 141.859 207.215 141.908 207.19C141.933 207.166 141.958 207.166 141.982 207.166C142.427 206.894 142.846 206.648 143.167 206.228C143.192 206.203 143.167 206.179 143.192 206.105C143.216 206.031 143.216 205.883 143.216 205.784C143.216 205.759 143.216 205.71 143.216 205.685C143.216 205.661 143.216 205.636 143.216 205.611C143.216 205.488 143.192 205.365 143.167 205.241C143.093 205.291 143.093 205.315 143.019 205.365C142.032 206.006 141.341 206.45 140.082 206.746C137.886 207.289 135.122 207.61 132.9 207.708C131.815 207.758 130.482 207.56 129.717 207.437C128.039 207.166 126.533 206.722 125.2 206.351C124.139 206.055 123.991 206.006 123.053 205.907C122.733 205.883 122.56 205.932 122.091 205.932C119.968 205.932 117.673 205.833 115.551 205.488C115.501 205.439 115.427 205.414 115.427 205.439Z" fill="black"/>
<path d="M115.452 205.76C115.427 205.858 115.477 205.932 115.501 206.031C115.501 206.031 115.501 206.031 115.501 206.056C115.501 206.08 115.526 206.179 115.526 206.228C115.526 206.278 115.551 206.302 115.551 206.352C115.551 206.401 115.575 206.426 115.575 206.475C115.575 206.524 115.6 206.598 115.625 206.648C115.65 206.697 115.65 206.771 115.674 206.796C115.699 206.821 115.674 206.845 115.699 206.87C115.699 206.895 115.699 206.895 115.724 206.919C115.724 206.944 115.724 206.944 115.724 206.969C115.724 206.993 115.724 206.993 115.748 207.018C115.748 207.043 115.748 207.067 115.773 207.092C115.773 207.117 115.773 207.067 115.773 207.117C115.798 207.166 115.798 207.24 115.822 207.314C115.847 207.388 115.872 207.487 115.921 207.585C115.921 207.61 115.921 207.61 115.946 207.659C115.97 207.709 115.995 207.832 116.02 207.881C118.562 208.77 120.98 208.819 123.621 208.474C123.621 208.104 123.572 207.487 124.016 207.388C124.559 207.289 125.052 207.462 125.571 207.536C125.99 207.585 126.385 207.758 126.805 207.857C126.805 207.857 126.805 207.857 126.829 207.857C127.125 207.931 127.397 208.029 127.693 208.104C128.952 208.424 130.21 208.696 131.518 208.819C131.543 208.819 131.592 208.819 131.617 208.819C132.802 208.844 134.011 208.794 135.196 208.72C135.418 208.696 135.64 208.696 135.862 208.671C136.084 208.646 136.356 208.622 136.578 208.597C136.775 208.572 136.948 208.548 137.145 208.523C138.552 208.326 139.885 208.029 141.217 207.536C141.341 207.487 141.44 207.437 141.514 207.413C141.588 207.388 141.637 207.363 141.686 207.339C141.76 207.314 141.834 207.265 141.884 207.24C141.933 207.215 141.933 207.215 141.982 207.191C142.007 207.166 142.007 207.166 142.057 207.166C142.525 206.919 142.97 206.722 143.241 206.228C143.266 206.179 143.241 206.179 143.266 206.105C143.266 206.031 143.29 205.883 143.29 205.784C143.29 205.76 143.29 205.71 143.29 205.686C143.29 205.661 143.315 205.636 143.29 205.636C143.266 205.636 143.414 205.587 143.241 205.612C143.192 205.636 143.71 205.291 143.019 205.809C142.303 206.302 141.514 206.821 140.008 207.166C137.343 207.733 132.629 208.276 129.865 207.807C127.101 207.339 125.694 206.45 123.103 206.302C120.561 206.08 117.945 206.204 115.452 205.76C115.477 205.76 115.452 205.76 115.452 205.76Z" fill="#232323"/>
<path d="M127.792 197.617C127.94 197.716 128.063 197.79 128.211 197.889C127.965 198.333 127.693 198.777 127.446 199.221C127.397 199.295 127.348 199.32 127.274 199.344C127.199 199.369 127.175 199.344 127.125 199.32C127.027 199.221 126.953 199.147 127.027 198.999C127.249 198.53 127.545 198.086 127.792 197.617Z" fill="#232323"/>
<path d="M128.483 199.838C128.433 199.912 128.384 199.936 128.31 199.936C128.236 199.961 128.187 199.936 128.162 199.912C128.063 199.813 127.989 199.739 128.063 199.591C128.285 199.147 128.582 198.727 128.804 198.283C128.952 198.382 129.075 198.456 129.223 198.555C129.001 198.974 128.73 199.418 128.483 199.838Z" fill="#232323"/>
<path d="M129.519 200.479C129.47 200.553 129.421 200.578 129.347 200.578C129.273 200.578 129.248 200.578 129.199 200.528C129.1 200.43 129.026 200.331 129.124 200.207C129.347 199.788 129.618 199.369 129.865 198.949C130.013 199.048 130.136 199.147 130.284 199.245C130.038 199.665 129.766 200.084 129.519 200.479Z" fill="#232323"/>
<path d="M19.9923 242.644C19.9676 242.693 19.7948 242.841 19.7948 242.89C19.7948 242.964 19.7208 243.014 19.7208 243.063C19.6961 243.113 19.6961 243.137 19.6714 243.187C19.6468 243.236 19.6468 243.261 19.6221 243.31C19.5974 243.359 19.5727 243.433 19.548 243.458C19.5234 243.507 19.4987 243.557 19.4987 243.606C19.474 243.655 19.474 243.655 19.474 243.68C19.4493 243.705 19.4493 243.729 19.4493 243.779C19.4246 243.803 19.4246 243.853 19.4 243.877C19.4 243.902 19.4 243.877 19.3753 243.927C19.3506 243.976 19.3259 244.075 19.3013 244.124C19.2766 244.198 19.2272 244.321 19.2272 244.371C19.2025 244.42 19.2272 244.395 19.2025 244.469C19.1779 244.519 19.1532 244.642 19.1285 244.716C20.7327 246.961 22.6083 248.54 25.0515 249.873C25.1503 249.552 25.5205 249.034 25.8906 249.182C26.4336 249.379 26.7791 249.823 27.1987 250.119C27.6182 250.415 27.865 250.736 28.2352 251.057C28.2352 251.057 28.2352 251.057 28.2352 251.082C28.4573 251.279 28.7041 251.526 28.9509 251.698C30.0368 252.439 31.2214 253.203 32.4554 253.524C34.0102 253.919 35.4663 253.82 36.9717 253.796C37.2678 253.796 37.49 253.771 37.7121 253.771C37.9342 253.771 38.1316 253.771 38.2797 253.771C39.8345 253.697 41.2906 253.499 42.7714 253.179C42.8701 253.154 42.8947 253.129 42.9688 253.129C43.0428 253.105 43.1169 253.08 43.1662 253.055C43.2156 253.031 43.2403 253.031 43.2649 253.031C43.2896 253.031 43.3143 253.006 43.339 253.006C43.8079 252.809 44.2274 252.611 44.6223 252.241C44.647 252.217 44.647 252.167 44.647 252.118C44.6717 252.068 44.6963 251.896 44.6963 251.822C44.6963 251.748 44.721 251.723 44.6963 251.649C44.6717 251.6 44.7457 251.649 44.7457 251.624C44.0053 250.588 45.0419 250.415 43.3883 249.749C41.9569 249.182 39.8345 249.404 37.9589 248.713C36.0586 248.022 34.5038 244.173 33.8868 242.545C33.2698 240.941 34.0102 241.706 32.7515 241.756C31.4682 241.805 29.5432 242.767 28.3833 241.731C27.1987 240.695 28.6054 239.51 27.9637 238.351C27.3221 237.191 27.4208 237.142 25.5945 237.833C23.9903 238.4 20.782 240.571 19.9923 242.644Z" fill="#444445"/>
<path d="M38.0328 253.722C38.1069 253.722 38.1809 253.697 38.255 253.697C38.255 253.599 38.2303 253.5 38.2303 253.376C38.1562 253.376 38.0822 253.401 38.0082 253.401C38.0328 253.5 38.0328 253.623 38.0328 253.722Z" fill="#444445"/>
<path d="M20.091 242.373C20.0416 242.422 19.9676 242.57 19.9182 242.644C19.8689 242.718 19.8195 242.817 19.7948 242.891C19.7702 242.965 19.7455 243.014 19.7208 243.064C19.6961 243.113 19.6961 243.138 19.6714 243.187C19.6468 243.261 19.5974 243.384 19.5727 243.434C19.548 243.508 19.5234 243.557 19.4987 243.582C19.474 243.631 19.474 243.68 19.4493 243.705C19.4493 243.73 19.4493 243.73 19.4246 243.754C19.4246 243.779 19.4246 243.779 19.4 243.804C19.3753 243.828 19.3753 243.853 19.3753 243.902C19.3506 243.952 19.3259 244.026 19.3013 244.1C19.2766 244.174 19.2519 244.272 19.2272 244.371C19.2272 244.396 19.2272 244.396 19.2025 244.445C19.1779 244.495 19.1532 244.618 19.1285 244.667C20.7327 246.912 22.6083 248.491 25.0269 249.824C25.1256 249.503 25.4958 248.985 25.866 249.133C26.4089 249.33 26.7544 249.774 27.174 250.07C27.5935 250.366 27.8403 250.687 28.2105 251.008C28.2105 251.008 28.2105 251.008 28.2105 251.033C28.4326 251.23 28.6794 251.477 28.9262 251.649C30.0121 252.39 31.1967 253.154 32.4307 253.475C33.9855 253.87 35.4416 253.771 36.947 253.747C37.2432 253.747 37.4653 253.722 37.6874 253.722C37.9095 253.722 38.1069 253.722 38.255 253.722C39.8098 253.648 41.2659 253.45 42.7467 253.13C42.8454 253.105 42.8701 253.08 42.9441 253.08C43.0181 253.056 43.0922 253.031 43.1415 253.006C43.1909 252.982 43.2156 252.982 43.2403 252.982C43.2649 252.982 43.2896 252.957 43.3143 252.957C43.7832 252.76 44.2028 252.562 44.5976 252.192C44.6223 252.168 44.6223 252.118 44.6223 252.069C44.647 252.02 44.6717 251.847 44.6717 251.773C44.6717 251.723 44.6717 251.699 44.6717 251.649C44.6717 251.625 44.6717 251.6 44.6717 251.575C44.6717 251.452 44.6717 251.329 44.6717 251.205C44.5976 251.23 44.5976 251.279 44.4989 251.329C43.413 251.797 42.6973 252.143 41.414 252.291C39.1928 252.538 36.4534 252.809 34.2076 252.76C33.1217 252.735 31.9124 252.192 31.1967 251.847C29.6419 251.082 28.482 249.922 27.4701 248.96C26.6557 248.195 26.5817 247.924 25.8166 247.307C25.5451 247.085 25.3971 247.036 25.0515 246.764C23.3487 245.506 21.6705 243.976 20.165 242.422C20.1403 242.422 20.1403 242.323 20.091 242.373Z" fill="black"/>
<path d="M19.9182 242.644C19.8442 242.718 19.8195 242.792 19.7948 242.89C19.7948 242.89 19.7948 242.89 19.7948 242.915C19.7948 242.94 19.7455 243.038 19.7208 243.063C19.6961 243.112 19.6961 243.137 19.6714 243.186C19.6467 243.236 19.6467 243.26 19.6221 243.31C19.5974 243.359 19.5727 243.433 19.548 243.458C19.5233 243.507 19.4987 243.556 19.4987 243.606C19.474 243.63 19.474 243.655 19.474 243.68C19.474 243.704 19.4493 243.729 19.4493 243.729C19.4493 243.754 19.4493 243.754 19.4246 243.778C19.4246 243.803 19.4246 243.803 19.3999 243.828C19.3999 243.852 19.3753 243.877 19.3753 243.902C19.3753 243.927 19.3753 243.902 19.3506 243.951C19.3259 244.001 19.3012 244.099 19.2765 244.149C19.2519 244.223 19.2025 244.346 19.2025 244.395C19.1778 244.445 19.2025 244.42 19.1778 244.494C19.1531 244.543 19.1285 244.667 19.1038 244.741C20.708 246.986 22.5836 248.565 25.0022 249.897C25.1996 249.576 25.4217 249.058 25.8659 249.206C26.3842 249.404 26.7297 249.823 27.1739 250.169C27.5195 250.44 27.8403 250.785 28.1611 251.081C28.1611 251.081 28.1611 251.081 28.1858 251.106C28.4326 251.303 28.6547 251.55 28.9015 251.723C30.0121 252.512 31.172 253.129 32.4553 253.598C32.48 253.598 32.5294 253.623 32.5541 253.623C33.788 253.845 35.022 253.919 36.2806 253.869C36.5028 253.869 36.7496 253.82 36.9717 253.795C37.1938 253.771 37.4899 253.771 37.6874 253.771C37.9095 253.771 38.0822 253.771 38.255 253.771C39.6617 253.697 41.0191 253.524 42.4011 253.253C42.5245 253.228 42.6232 253.203 42.722 253.179C42.8207 253.154 42.8454 253.129 42.9194 253.129C42.9934 253.105 43.0675 253.08 43.1168 253.055C43.1662 253.031 43.1662 253.031 43.2155 253.031C43.2402 253.006 43.2649 253.006 43.2896 253.006C43.7832 252.833 44.2027 252.66 44.5482 252.266C44.5729 252.241 44.5729 252.192 44.5729 252.142C44.5976 252.093 44.6223 251.92 44.6223 251.871C44.6223 251.822 44.6223 251.797 44.6223 251.748C44.6223 251.698 44.647 251.723 44.6223 251.674C44.5976 251.649 44.7457 251.674 44.5976 251.624C44.5482 251.6 45.0171 251.476 44.2274 251.846C43.4377 252.216 42.5986 252.586 41.0931 252.71C38.4277 252.932 33.788 253.376 31.2214 252.142C28.6547 250.909 27.7416 249.182 25.6191 247.627C23.6448 246.147 21.7198 244.42 19.9182 242.644Z" fill="#232323"/>
<path d="M34.3803 242.865C34.4296 242.989 34.479 243.112 34.5037 243.26C34.0595 243.507 33.5906 243.753 33.171 243.975C33.097 244.025 33.0476 244.025 32.9736 244C32.8995 243.975 32.8749 243.951 32.8749 243.901C32.8502 243.753 32.8749 243.679 33.0229 243.605C33.4672 243.359 33.9361 243.112 34.3803 242.865Z" fill="#232323"/>
<path d="M33.5412 244.889C33.4672 244.938 33.4178 244.938 33.3438 244.913C33.2698 244.889 33.2451 244.889 33.2451 244.815C33.2451 244.667 33.2451 244.593 33.3685 244.519C33.788 244.272 34.2569 244.05 34.6765 243.803C34.7259 243.927 34.7752 244.05 34.7999 244.173C34.405 244.42 33.9608 244.667 33.5412 244.889Z" fill="#232323"/>
<path d="M33.9361 245.826C33.862 245.876 33.8127 245.876 33.7387 245.851C33.6646 245.826 33.6399 245.826 33.6399 245.752C33.6153 245.604 33.6399 245.53 33.7633 245.456C34.1582 245.21 34.6024 244.963 35.022 244.741C35.0713 244.864 35.1207 244.987 35.1701 245.111C34.7752 245.333 34.331 245.58 33.9361 245.826Z" fill="#232323"/>
<path opacity="0.07" d="M81.9128 261H19.7948C15.5253 261 12.0455 257.522 12.0455 253.253C12.0455 248.985 15.5253 245.506 19.7948 245.506H81.9128C86.1824 245.506 89.6622 248.985 89.6622 253.253C89.6622 257.546 86.207 261 81.9128 261Z" fill="#6457A4"/>
<path opacity="0.39" d="M92.8211 164.977L92.2781 165.199C92.2781 165.199 90.7234 166.038 89.366 166.753C90.1064 165.766 90.5506 164.582 90.6 163.299L91.982 135.518L92.2781 129.548L92.8211 164.977Z" fill="#C9BDA3"/>
<path d="M92.0808 133.643L91.982 135.518L90.6 163.299C90.526 164.557 90.0817 165.766 89.366 166.753C88.7737 167.543 88.0087 168.184 87.1202 168.628C81.1971 171.49 75.1507 174.081 70.3876 176.03C67.969 177.017 65.8959 177.831 64.3411 178.423C63.0825 178.892 61.8238 177.757 62.1693 176.474L72.0411 138.923L72.584 136.826C72.6581 136.555 72.3372 136.382 72.1398 136.555L45.6094 159.722L44.6469 159.327L40.3774 157.551C40.0072 157.403 39.7604 157.131 39.6123 156.81C39.4149 156.342 39.4396 155.774 39.7851 155.33L69.1536 117.434C70.2148 116.077 71.7202 115.115 73.3984 114.745L80.3334 113.215L89.8843 126.266C91.4144 128.388 92.2042 130.979 92.0808 133.643Z" fill="#6457A4"/>
<path d="M92.0808 133.643L91.9821 135.518L73.3985 114.745L80.3334 113.215L89.8843 126.266C91.4144 128.388 92.2042 130.979 92.0808 133.643Z" fill="#4E4688"/>
<path opacity="0.2" d="M72.0164 138.874L70.3629 176.006C67.9443 176.992 65.8712 177.807 64.3164 178.399C63.0578 178.867 61.7991 177.733 62.1446 176.45L72.0164 138.874Z" fill="black"/>
<path opacity="0.2" d="M124.534 115.238C118.586 118.519 112.762 121.998 109.677 123.873C108.098 124.835 106.962 126.365 106.543 128.166C103.754 140.231 109.184 152.221 109.184 152.221C109.184 152.221 108.32 153.628 106.962 155.305C103.803 152.024 103.211 141.489 103.211 134.087C103.211 129.449 105.778 125.181 109.899 122.985L124.534 115.238Z" fill="black"/>
<path d="M95.8814 163.718C95.7826 164.754 95.6346 165.791 95.4618 166.827C95.2891 167.863 95.0669 168.875 94.8201 169.911C94.5487 170.923 94.2772 171.934 93.907 172.921C93.5368 173.908 93.1173 174.87 92.525 175.734C92.6484 175.487 92.7471 175.265 92.8705 175.043C92.9692 174.796 93.0679 174.574 93.1666 174.327C93.2653 174.081 93.3641 173.834 93.4381 173.587C93.5368 173.34 93.6109 173.094 93.6849 172.847C93.8576 172.354 94.0057 171.86 94.1538 171.367C94.2772 170.873 94.4253 170.355 94.5487 169.862C94.8201 168.85 95.0423 167.839 95.2397 166.802C95.3384 166.284 95.4618 165.791 95.5605 165.273C95.6839 164.754 95.7826 164.236 95.8814 163.718Z" fill="#231F20"/>
<path opacity="0.4" d="M120.018 165.52L95.6099 173.612C93.0926 174.673 91.1676 176.77 90.2545 179.336L81.9869 200.727C82.0856 200.283 88.5516 171.021 95.906 170.232C103.31 169.467 120.018 165.52 120.018 165.52Z" fill="black"/>
<path opacity="0.2" d="M121.918 193.3L118.019 194.213L120.018 165.52L121.918 193.3Z" fill="black"/>
<path opacity="0.2" d="M75.2987 212.051L74.9532 212.396C74.8545 212.47 74.7311 212.544 74.6324 212.618L40.2787 236.476L36.1819 234.971L75.2987 212.051Z" fill="black"/>
<path d="M97.3128 109.415C93.7589 110.352 91.4884 109.834 90.1064 109.119C90.4272 108.329 90.6493 107.565 90.7727 106.997C91.4391 107.639 92.2288 108.132 93.0926 108.477C93.4628 108.625 93.8576 108.724 94.2525 108.798C94.6721 108.872 95.1163 108.921 95.5605 108.921C96.1035 108.921 96.6217 108.847 97.14 108.749C97.214 108.971 97.2634 109.193 97.3128 109.415Z" fill="#F16B6C"/>
<path d="M44.6223 159.278C44.03 160.018 43.5611 160.881 43.2403 161.769L42.6479 163.472C42.3024 162.682 41.8829 161.917 41.3893 161.177C40.7723 160.19 38.9213 158.463 39.2915 157.156C39.3409 156.983 39.4396 156.835 39.563 156.736C39.7111 157.057 39.9579 157.328 40.3281 157.476L44.6223 159.278Z" fill="#F16B6C"/>
<path opacity="0.35" d="M83.9612 99.2501L84.3067 100.558C84.6276 101.717 85.4667 102.68 86.5772 103.124L86.9968 103.272C87.367 104.53 88.058 105.665 88.9465 106.553L101.508 102.926C101.558 103.05 101.73 103.074 101.854 103.025C101.977 102.951 102.027 102.828 102.076 102.704C102.125 102.581 102.175 102.458 102.224 102.334C102.347 101.619 102.372 100.854 102.273 100.114L101.928 97.1777L101.632 94.7845C101.508 93.7483 101.187 92.786 100.719 91.9472C99.2131 89.2333 96.2022 87.5802 92.9445 87.975C90.2298 88.2957 88.0086 89.9734 86.8734 92.2433C86.3798 93.2301 86.0836 94.3404 86.059 95.5C86.059 95.5246 86.059 95.574 86.059 95.5987V95.722C86.059 96.0428 86.0836 96.3388 86.1083 96.6596L86.2317 97.7451L86.2564 97.9178L85.2939 97.7698C84.4301 97.6464 83.7391 98.436 83.9612 99.2501Z" fill="black"/>
<path opacity="0.19" d="M103.655 90.0474C103.655 90.072 103.631 90.1214 103.631 90.146C103.655 90.1214 103.655 90.0967 103.655 90.0474Z" fill="white"/>
<path d="M101.484 94.094C100.842 94.2914 100.2 94.4395 99.5586 94.5381C99.4352 94.5628 99.3118 94.5628 99.213 94.5875C97.8063 94.7602 96.3502 94.7355 94.9435 94.6368C93.7342 94.5628 92.5003 94.4148 91.365 93.9707C89.1932 93.1072 88.4528 94.1187 87.7865 96.0925C87.5397 96.8326 87.1202 97.3508 86.7006 97.8442L86.2564 97.9182L86.2317 97.7455L86.1823 97.3508L86.1083 96.6353C86.0589 96.3145 86.0589 95.9938 86.0589 95.6977V95.5744C86.0589 95.5497 86.0589 95.5004 86.0589 95.4757C86.0836 94.3161 86.3798 93.2059 86.8734 92.1943C88.0086 89.9245 90.2298 88.2468 92.9445 87.926C95.9307 87.5559 98.7441 88.9623 100.348 91.2814C100.373 91.3308 100.398 91.3801 100.447 91.4048C100.546 91.5528 100.644 91.7255 100.743 91.8982C101.064 92.6137 101.335 93.3292 101.484 94.094Z" fill="#F97C15"/>
<path d="M86.676 97.8441C86.3798 98.1895 86.1083 98.5596 85.8616 99.0037C85.4667 99.7686 86.0096 101.545 86.7994 103.223L86.5526 103.124C85.7875 102.828 85.1458 102.26 84.7016 101.57C84.5042 101.249 84.3561 100.928 84.2574 100.558L83.9119 99.2504C83.6897 98.4363 84.3808 97.6468 85.2199 97.7701L86.1824 97.9181" fill="#F28389"/>
<path d="M106.79 88.9127C106.666 89.2581 106.518 89.6035 106.345 89.9489C105.358 91.898 103.631 93.403 101.484 94.0938C101.311 93.329 101.039 92.6135 100.694 91.9474C100.595 91.7747 100.496 91.6266 100.398 91.4539C100.373 91.4046 100.348 91.3552 100.299 91.3306C98.6948 89.0114 95.906 87.6051 92.8951 87.9751C90.1804 88.2959 87.9592 89.9736 86.824 92.2434C86.3304 93.2303 86.0342 94.3405 86.0096 95.5248C86.0096 95.5495 86.0096 95.5988 86.0096 95.6235V95.7469C86.0096 96.0676 86.0342 96.3637 86.0589 96.6844L86.133 97.3999L86.1823 97.7946L86.207 97.9673L85.8121 97.918L85.2445 97.8193C84.5782 97.7206 84.0105 98.1894 83.9118 98.8062C83.8871 98.9542 83.8871 99.1269 83.9365 99.2996L84.282 100.607C84.3807 100.977 84.5288 101.298 84.7262 101.619C85.1458 102.31 85.7875 102.852 86.5772 103.173L86.824 103.272C86.9721 103.593 87.1448 103.938 87.3176 104.259C87.6384 104.851 88.0086 105.542 88.4775 106.035C88.6749 106.257 89.2179 106.923 89.44 107.022C86.8733 105.813 84.4548 104.135 82.8012 101.866C82.7025 101.742 82.6285 101.619 82.5298 101.495C80.8516 99.0282 80.1359 95.7962 81.0984 92.9589C81.3205 92.2928 81.666 91.6266 82.1596 91.1085C83.048 90.171 84.3807 89.7515 85.6394 89.4061C84.9484 88.2219 85.4666 86.6922 86.3057 85.6313C88.1073 83.3368 91.3897 82.3499 94.1538 83.2875C94.9435 83.5588 95.6098 83.7809 96.2762 83.1641C97.4114 82.1032 98.1025 80.6722 99.2624 79.636C100.62 78.4024 102.471 78.205 104.124 79.0192C107.555 80.6475 107.9 85.7053 106.79 88.9127Z" fill="#F97C15"/>
<path d="M102.199 102.358C101.804 104.702 100.373 106.725 98.3246 107.885C98.1518 107.984 97.9791 108.082 97.8063 108.156C97.2634 108.403 96.6958 108.6 96.0788 108.724C95.9801 108.749 95.8813 108.773 95.7826 108.773C95.6592 108.798 95.5605 108.798 95.4371 108.823C94.672 108.921 93.9563 108.897 93.2406 108.773C92.4509 108.65 91.6858 108.403 90.9948 108.033C90.4766 107.762 89.983 107.441 89.5141 107.071C89.3166 106.923 89.1192 106.75 88.9464 106.553C88.2801 105.887 87.7125 105.072 87.3176 104.16C87.1942 103.863 87.0708 103.567 86.9968 103.247L86.824 103.173C86.0096 101.495 85.4913 99.7185 85.8862 98.9537C86.3304 98.1148 86.9474 97.5721 87.4163 96.8072C87.5644 96.5605 87.6878 96.3138 87.7865 96.0177C88.4528 94.0439 89.1932 93.0324 91.365 93.8959C92.5003 94.34 93.7342 94.488 94.9435 94.5621C96.4736 94.6607 98.0531 94.6854 99.5832 94.4634C99.7313 94.4387 99.8547 94.414 100.003 94.3894C100.126 94.3647 100.225 94.34 100.348 94.3153C100.422 94.3153 100.472 94.2907 100.546 94.266C100.57 94.266 100.595 94.266 100.62 94.2413C100.669 94.2413 100.718 94.2166 100.768 94.192C100.793 94.192 100.842 94.1673 100.867 94.1673C100.916 94.1426 100.965 94.1426 101.039 94.118C101.064 94.118 101.113 94.0933 101.138 94.0933C101.187 94.0686 101.237 94.0686 101.286 94.0439C101.36 94.0193 101.459 93.9946 101.533 93.9699C101.582 94.192 101.632 94.4387 101.656 94.6854L101.78 95.6723L101.804 95.9684L101.829 96.1904L101.854 96.3878L101.903 96.8812L101.928 97.0786L102.273 100.015C102.347 100.878 102.323 101.643 102.199 102.358Z" fill="#F28389"/>
<path d="M99.5586 94.5379C99.7067 94.5132 99.83 94.4885 99.9781 94.4639C99.83 94.4885 99.682 94.5132 99.5586 94.5379Z" fill="#FF8500"/>
<path d="M106.345 89.9492C105.951 91.4542 104.346 93.3293 103.803 93.9214C103.088 94.7356 102.347 95.5745 101.804 96.4873L101.78 96.2899L101.607 94.7849C101.582 94.5382 101.533 94.3162 101.484 94.0695C103.631 93.4033 105.358 91.923 106.345 89.9492Z" fill="#EA6400"/>
<path d="M89.4154 106.972C86.8487 105.763 84.4301 104.086 82.7766 101.816C82.7519 101.396 82.7519 100.977 82.8013 100.557C82.8753 99.9653 83.0481 99.3238 83.517 98.9784C83.6404 98.8797 83.7884 98.8304 83.9365 98.7563C83.9118 98.9044 83.9118 99.0771 83.9612 99.2498L84.3067 100.557C84.4054 100.927 84.5535 101.248 84.7509 101.569C85.1705 102.26 85.8122 102.803 86.6019 103.123L86.8487 103.222C86.9968 103.543 87.1695 103.888 87.3423 104.209C87.6631 104.801 88.0333 105.492 88.5022 105.985C88.675 106.183 89.2179 106.873 89.4154 106.972Z" fill="#EA6400"/>
<path d="M90.4272 91.6261C93.5121 91.7988 96.2516 93.8959 99.1884 94.5621C97.7817 94.7348 96.3256 94.7101 94.9189 94.6114C93.7096 94.5374 92.4756 94.3894 91.3404 93.9453C89.1686 93.0818 88.4282 94.0933 87.7618 96.0671C87.515 96.8072 87.0955 97.3254 86.676 97.8188L86.2317 97.8928L85.8369 97.8435C85.9602 97.6954 86.059 97.5227 86.1577 97.35C86.4538 96.8072 86.6019 96.1411 86.7006 95.5243C86.8734 94.3894 86.9968 93.1311 87.8112 92.3663C88.5022 91.7495 89.5141 91.5768 90.4272 91.6261Z" fill="#EA6400"/>
<path d="M100.176 94.7355H100.052L99.4599 94.7108C99.5092 94.6861 99.5586 94.6861 99.6079 94.6615C99.8054 94.6121 100.003 94.6615 100.176 94.7355Z" fill="#FF8500"/>
<path d="M101.261 94.76C100.916 94.7847 100.546 94.76 100.2 94.7354H100.176L101.261 94.76Z" fill="#FF8500"/>
<path d="M101.73 95.7719C99.3858 96.9315 96.4737 96.7588 93.907 96.0927C92.6483 95.7719 91.3403 95.3278 90.057 95.5992C89.0945 95.8213 88.2801 96.3887 87.4163 96.8575C87.5644 96.6108 87.6878 96.3641 87.7865 96.068C88.4529 94.0942 89.1932 93.0827 91.365 93.9462C92.5003 94.3903 93.7342 94.5383 94.9435 94.6124C96.4737 94.711 98.0531 94.7357 99.5833 94.5137C99.7313 94.489 99.8547 94.4643 100.003 94.4396C100.126 94.415 100.225 94.3903 100.348 94.3656C100.422 94.3656 100.472 94.341 100.546 94.3163C100.57 94.3163 100.595 94.3163 100.62 94.2916C100.669 94.2916 100.719 94.2669 100.768 94.2423C100.793 94.2423 100.842 94.2176 100.867 94.2176C100.916 94.1929 100.965 94.1929 101.039 94.1683C101.064 94.1683 101.113 94.1436 101.138 94.1436C101.187 94.1189 101.237 94.1189 101.286 94.0942C101.36 94.0696 101.459 94.0449 101.533 94.0202C101.582 94.2423 101.632 94.489 101.656 94.7357L101.73 95.7719Z" fill="#F16B6C"/>
<path d="M319.427 126.192C319.205 126.266 318.958 126.315 318.711 126.364C318.613 126.389 318.514 126.389 318.415 126.414H291.465C281.248 125.279 272.067 123.256 268.983 121.381C266.342 119.777 264.392 117.902 263.109 115.953C260.764 112.375 260.641 108.601 262.393 105.887C262.714 105.369 263.059 104.875 263.43 104.382C263.528 104.258 263.602 104.135 263.701 104.012C263.8 103.888 263.874 103.765 263.973 103.641C264.565 102.852 265.157 102.161 265.75 101.544C265.848 101.446 265.972 101.322 266.07 101.224C266.12 101.174 266.169 101.125 266.243 101.076C266.391 100.928 266.539 100.804 266.687 100.656C266.761 100.582 266.835 100.533 266.909 100.459C266.984 100.409 267.033 100.335 267.107 100.286C267.132 100.261 267.156 100.237 267.181 100.212C268.193 99.3485 269.303 98.5344 270.661 97.5968C271.524 95.5244 272.462 93.4026 273.524 91.2808C274.141 90.0472 274.807 88.7889 275.498 87.5799C275.523 87.5553 275.547 87.5059 275.547 87.4813C275.621 87.3579 275.671 87.2345 275.745 87.1358C275.745 87.1112 275.769 87.1112 275.769 87.0865C275.893 86.8645 276.016 86.6671 276.14 86.445C276.164 86.4204 276.164 86.3957 276.189 86.371C276.337 86.149 276.46 85.9269 276.608 85.6802C276.633 85.6308 276.682 85.5815 276.707 85.5322C279.521 81.0418 282.926 77.0943 287.072 74.7998C287.097 74.7998 287.097 74.7751 287.122 74.7751C287.245 74.7011 287.369 74.6518 287.492 74.5778C287.591 74.5284 287.689 74.4791 287.788 74.4297C287.936 74.3557 288.109 74.2817 288.257 74.2077C288.282 74.2077 288.306 74.183 288.331 74.183C288.356 74.183 288.38 74.1583 288.405 74.1583C290.602 73.1468 292.527 72.5546 294.205 72.1846C294.205 72.1846 294.205 72.1846 294.229 72.1846C294.304 72.1599 294.378 72.1599 294.452 72.1352L295.71 71.8638L296.525 71.9132L296.352 67.2748C296.327 66.5347 296.377 65.8192 296.475 65.1037C296.92 62.3404 298.154 55.4569 299.955 54.47C301.312 53.7298 302.62 53.8779 303.608 54.8154C303.731 54.9634 303.854 55.0868 303.978 55.2348C304.447 55.827 304.792 56.6411 304.99 57.628C305.607 60.7861 307.458 61.8963 310.098 62.2911C311.678 62.5378 312.073 61.2795 312.64 59.9472C313.01 59.0343 313.479 58.0968 314.393 57.554C316.688 56.1477 317.872 60.2186 319.871 60.8847C321.377 61.3782 313.381 67.8423 309.333 71.025C309.259 71.025 309.185 71.025 309.111 71.025C308.42 71.025 307.778 71.321 307.161 71.6418C307.137 71.6418 307.137 71.6171 307.112 71.6171C306.964 71.5678 306.841 71.5431 306.717 71.5431C305.483 70.9263 303.904 70.8523 302.941 72.0119C302.843 72.1352 302.769 72.2586 302.695 72.3819C302.67 72.4313 302.645 72.4806 302.62 72.53C302.423 72.9987 302.398 73.5415 302.62 74.0103C302.917 74.6764 303.558 75.1699 304.323 75.1699C304.891 75.1699 305.335 74.8985 305.656 74.4791C305.557 74.8985 305.434 75.3179 305.335 75.7373C305.064 76.7982 304.842 77.8838 304.669 78.9694C304.595 79.5122 304.496 80.055 304.447 80.5977C304.422 80.8691 304.373 81.1405 304.348 81.4366C304.323 81.7573 304.323 82.0534 304.323 82.3741C304.323 82.8922 304.225 83.435 304.2 83.9778C304.151 84.57 304.151 85.1374 304.151 85.7295C304.151 86.0749 304.521 86.297 304.817 86.297C305.113 86.297 305.459 86.0503 305.483 85.7295C305.533 85.1621 305.557 84.6193 305.607 84.0518C305.631 83.5337 305.631 82.9909 305.705 82.4728C305.73 82.3248 305.779 82.2014 305.804 82.0781C305.829 81.93 305.829 81.8067 305.853 81.6586C305.878 81.3873 305.903 81.0912 305.928 80.8198C305.977 80.277 306.051 79.7342 306.125 79.1914C306.273 78.1059 306.396 76.9956 306.544 75.91C306.643 75.1946 306.767 74.5037 306.89 73.8129C307.063 74.3804 307.236 74.9232 307.384 75.4906C307.778 77.0696 308.025 78.698 308.075 80.3263C308.124 81.9054 307.877 83.5091 307.704 85.0881C307.655 85.4088 307.877 85.7049 308.173 85.8036C308.469 85.8776 308.84 85.7295 308.938 85.4335C309.284 84.3726 309.407 83.2623 309.481 82.1521C309.58 80.425 309.432 78.698 309.062 76.9956C308.864 76.1074 308.618 75.2439 308.272 74.3804C308.494 74.4791 308.716 74.5778 308.963 74.6518C309.457 74.7751 309.975 74.7505 310.419 74.5284C319.699 79.7095 323.129 90.7133 324.906 100.533C325.301 102.778 325.893 105.739 326.239 108.847C326.979 116.101 326.51 124.193 319.427 126.192Z" fill="white"/>
<path opacity="0.3" d="M319.427 126.192C319.205 126.266 318.958 126.315 318.711 126.364C318.613 126.389 318.514 126.389 318.415 126.414H291.465C281.248 125.279 272.067 123.256 268.983 121.381C266.342 119.777 264.392 117.902 263.109 115.953C260.764 112.375 260.641 108.601 262.393 105.887C262.714 105.369 263.059 104.875 263.43 104.382C263.528 104.258 263.602 104.135 263.701 104.012C263.8 103.888 263.874 103.765 263.973 103.641C264.565 102.852 265.157 102.161 265.75 101.544C265.848 101.446 265.972 101.322 266.07 101.224C266.12 101.174 266.169 101.125 266.243 101.076C266.391 100.928 266.539 100.804 266.687 100.656C266.761 100.582 266.835 100.533 266.909 100.459C266.984 100.409 267.033 100.335 267.107 100.286C267.132 100.261 267.156 100.237 267.181 100.212C268.193 99.3485 269.303 98.5344 270.661 97.5968C271.524 95.5244 272.462 93.4026 273.524 91.2808C274.141 90.0472 274.807 88.7889 275.498 87.5799C275.523 87.5553 275.547 87.5059 275.547 87.4813C275.621 87.3579 275.671 87.2345 275.745 87.1358C275.745 87.1112 275.769 87.1112 275.769 87.0865C275.893 86.8645 276.016 86.6671 276.14 86.445C276.164 86.4204 276.164 86.3957 276.189 86.371C276.337 86.149 276.46 85.9269 276.608 85.6802C276.633 85.6308 276.682 85.5815 276.707 85.5322C279.521 81.0418 282.926 77.0943 287.072 74.7998C287.097 74.7998 287.097 74.7751 287.122 74.7751C287.245 74.7011 287.369 74.6518 287.492 74.5778C287.591 74.5284 287.689 74.4791 287.788 74.4297C287.936 74.3557 288.109 74.2817 288.257 74.2077C288.282 74.2077 288.306 74.183 288.331 74.183C288.356 74.183 288.38 74.1583 288.405 74.1583C290.602 73.1468 292.527 72.5546 294.205 72.1846C294.205 72.1846 294.205 72.1846 294.229 72.1846C294.304 72.1599 294.378 72.1599 294.452 72.1352L295.71 71.8638L296.525 71.9132L296.352 67.2748C296.327 66.5347 296.377 65.8192 296.475 65.1037C296.92 62.3404 298.154 55.4569 299.955 54.47C301.312 53.7298 302.62 53.8779 303.608 54.8154C303.731 54.9634 303.854 55.0868 303.978 55.2348C304.447 55.827 304.792 56.6411 304.99 57.628C305.607 60.7861 307.458 61.8963 310.098 62.2911C311.678 62.5378 312.073 61.2795 312.64 59.9472C313.01 59.0343 313.479 58.0968 314.393 57.554C316.688 56.1477 317.872 60.2186 319.871 60.8847C321.377 61.3782 313.381 67.8423 309.333 71.025C309.259 71.025 309.185 71.025 309.111 71.025C308.42 71.025 307.778 71.321 307.161 71.6418C307.137 71.6418 307.137 71.6171 307.112 71.6171C306.964 71.5678 306.841 71.5431 306.717 71.5431C305.483 70.9263 303.904 70.8523 302.941 72.0119C302.843 72.1352 302.769 72.2586 302.695 72.3819C302.67 72.4313 302.645 72.4806 302.62 72.53C302.423 72.9987 302.398 73.5415 302.62 74.0103C302.917 74.6764 303.558 75.1699 304.323 75.1699C304.891 75.1699 305.335 74.8985 305.656 74.4791C305.557 74.8985 305.434 75.3179 305.335 75.7373C305.064 76.7982 304.842 77.8838 304.669 78.9694C304.595 79.5122 304.496 80.055 304.447 80.5977C304.422 80.8691 304.373 81.1405 304.348 81.4366C304.323 81.7573 304.323 82.0534 304.323 82.3741C304.323 82.8922 304.225 83.435 304.2 83.9778C304.151 84.57 304.151 85.1374 304.151 85.7295C304.151 86.0749 304.521 86.297 304.817 86.297C305.113 86.297 305.459 86.0503 305.483 85.7295C305.533 85.1621 305.557 84.6193 305.607 84.0518C305.631 83.5337 305.631 82.9909 305.705 82.4728C305.73 82.3248 305.779 82.2014 305.804 82.0781C305.829 81.93 305.829 81.8067 305.853 81.6586C305.878 81.3873 305.903 81.0912 305.928 80.8198C305.977 80.277 306.051 79.7342 306.125 79.1914C306.273 78.1059 306.396 76.9956 306.544 75.91C306.643 75.1946 306.767 74.5037 306.89 73.8129C307.063 74.3804 307.236 74.9232 307.384 75.4906C307.778 77.0696 308.025 78.698 308.075 80.3263C308.124 81.9054 307.877 83.5091 307.704 85.0881C307.655 85.4088 307.877 85.7049 308.173 85.8036C308.469 85.8776 308.84 85.7295 308.938 85.4335C309.284 84.3726 309.407 83.2623 309.481 82.1521C309.58 80.425 309.432 78.698 309.062 76.9956C308.864 76.1074 308.618 75.2439 308.272 74.3804C308.494 74.4791 308.716 74.5778 308.963 74.6518C309.457 74.7751 309.975 74.7505 310.419 74.5284C319.699 79.7095 323.129 90.7133 324.906 100.533C325.301 102.778 325.893 105.739 326.239 108.847C326.979 116.101 326.51 124.193 319.427 126.192Z" fill="#FCB713"/>
<path opacity="0.8" d="M312.616 59.9472C312.048 61.2795 311.653 62.5378 310.074 62.2911C307.433 61.8963 305.582 60.8108 304.99 57.6281C304.792 56.6165 304.447 55.827 303.978 55.2349C307.606 59.1824 310.715 59.9719 312.616 59.9472Z" fill="#FCB713"/>
<path opacity="0.5" d="M324.98 120.541C324.684 122.737 322.759 124.39 320.735 125.328C314.96 128.042 308.692 126.413 302.596 126.413C298.968 126.413 295.069 126.808 291.441 126.413C281.224 125.278 272.043 123.255 268.958 121.38C266.317 119.777 264.368 117.901 263.084 115.952C260.74 112.375 260.616 108.6 262.368 105.886C263.701 103.838 265.207 101.889 267.058 100.286C271.451 96.5108 273.104 91.4776 276.016 86.6172C278.978 81.6582 282.852 76.6991 288.208 74.2072C288.232 74.2072 288.257 74.1825 288.282 74.1825C288.307 74.1825 288.331 74.1578 288.356 74.1578C289.072 73.8618 291.836 72.8009 294.156 72.1841C294.156 72.1841 294.156 72.1841 294.18 72.1841C294.254 72.1594 294.328 72.1347 294.402 72.1347C294.847 72.0114 295.266 71.9374 295.661 71.8633C295.957 71.814 296.229 71.7893 296.475 71.7647C296.969 71.74 297.339 71.7893 297.512 71.9867C297.561 72.036 297.586 72.1101 297.586 72.2087C297.586 72.2581 297.586 72.2828 297.586 72.3321C297.487 72.9736 296.451 73.9605 296.081 74.5279C294.575 76.8471 293.242 79.2896 292.132 81.8062C290.404 85.6797 289.146 89.8246 288.603 94.0189C288.208 97.2016 287.221 100.335 285.691 103.172C284.629 105.146 282.606 106.33 281.742 108.427C279.99 112.646 284.259 114.127 287.171 115.73C290.083 117.334 293.045 118.814 296.204 119.826C300.794 121.282 305.607 121.972 310.395 122.022C311.678 122.046 324.955 120.813 324.98 120.541Z" fill="#FCB713"/>
<g opacity="0.8">
<path opacity="0.8" d="M299.61 110.106C298.919 109.884 298.351 109.613 297.833 109.292C297.339 108.971 296.92 108.675 296.549 108.379C296.204 108.083 295.908 107.787 295.71 107.515C295.513 107.244 295.365 107.047 295.266 106.923C295.167 106.775 295.118 106.652 295.118 106.529C295.093 106.405 295.167 106.282 295.34 106.134L296.722 104.875C296.87 104.727 297.018 104.678 297.191 104.703C297.364 104.727 297.537 104.9 297.734 105.172C298.03 105.591 298.425 105.986 298.845 106.38C299.289 106.775 299.782 107.071 300.301 107.293L301.584 102.334C301.041 101.94 300.523 101.52 300.029 101.076C299.511 100.607 299.067 100.114 298.697 99.5463C298.326 98.9789 298.055 98.3621 297.907 97.6959C297.759 97.0051 297.783 96.2649 298.006 95.4014C298.154 94.7846 298.4 94.2418 298.746 93.7484C299.091 93.2549 299.511 92.8355 300.029 92.5148C300.548 92.194 301.165 91.972 301.88 91.8486C302.596 91.7253 303.386 91.7499 304.274 91.898L304.472 91.0838C304.496 90.9604 304.57 90.8371 304.694 90.7877C304.817 90.7137 304.94 90.7137 305.064 90.7384L305.385 90.8124C305.508 90.8371 305.632 90.9358 305.681 91.0345C305.755 91.1578 305.755 91.2812 305.73 91.4045L305.508 92.2434C306.051 92.4408 306.545 92.6628 307.014 92.9342C307.482 93.2056 307.877 93.477 308.223 93.7484C308.568 94.0198 308.84 94.2912 309.062 94.5132C309.284 94.7353 309.432 94.908 309.531 95.0313C309.654 95.1547 309.704 95.3027 309.679 95.4754C309.654 95.6481 309.58 95.7962 309.482 95.9195L308.075 97.1285C307.779 97.3752 307.532 97.3752 307.31 97.1531C307.014 96.8324 306.668 96.4623 306.248 96.0676C305.829 95.6728 305.335 95.3274 304.792 95.0313L303.583 99.6697C304.077 100.04 304.595 100.484 305.138 100.953C305.681 101.421 306.15 101.964 306.545 102.556C306.94 103.148 307.236 103.79 307.433 104.505C307.631 105.221 307.606 105.986 307.384 106.8C307.014 108.182 306.273 109.218 305.138 109.909C304.003 110.599 302.547 110.772 300.819 110.427L300.128 113.067C300.103 113.19 300.005 113.289 299.881 113.363C299.758 113.412 299.634 113.437 299.486 113.387C299.338 113.338 299.165 113.289 298.993 113.19C298.82 113.091 298.771 112.943 298.82 112.721L299.61 110.106ZM303.583 94.7106C302.917 94.6366 302.374 94.7106 301.979 94.982C301.559 95.2287 301.313 95.5988 301.165 96.0922C301.041 96.6103 301.09 97.0544 301.313 97.4739C301.559 97.8933 301.954 98.3374 302.497 98.8555L303.583 94.7106ZM301.609 107.688C302.201 107.762 302.719 107.713 303.164 107.491C303.608 107.269 303.904 106.899 304.052 106.306C304.175 105.813 304.151 105.32 303.953 104.801C303.756 104.283 303.361 103.765 302.769 103.222L301.609 107.688Z" fill="#FCB713"/>
</g>
<path opacity="0.8" d="M311.036 72.0367C310.666 71.3952 310.024 71.0498 309.309 71.0005C309.235 71.0005 309.161 71.0005 309.086 71.0005C308.395 71.0005 307.754 71.2966 307.137 71.6173C307.112 71.6173 307.112 71.5926 307.087 71.5926C306.939 71.5433 306.816 71.5186 306.693 71.5186C305.459 70.9018 303.879 70.8278 302.917 71.9874C302.818 72.1107 302.744 72.2341 302.67 72.3575C302.645 72.4068 302.621 72.4561 302.596 72.5055C302.398 72.9743 302.374 73.517 302.596 73.9858C302.892 74.652 303.534 75.1454 304.299 75.1454C304.866 75.1454 305.311 74.874 305.631 74.4546C305.533 74.874 305.409 75.2934 305.311 75.7129C305.039 76.7738 304.817 77.8593 304.644 78.9449C304.57 79.4877 304.472 80.0305 304.422 80.5733C304.397 80.8447 304.348 81.1161 304.323 81.4121C304.299 81.7329 304.299 82.0289 304.299 82.3497C304.299 82.8678 304.2 83.4106 304.175 83.9533C304.126 84.5455 304.126 85.1129 304.126 85.7051C304.126 86.0505 304.496 86.2725 304.792 86.2725C305.088 86.2725 305.434 86.0258 305.459 85.7051C305.508 85.1376 305.533 84.5948 305.582 84.0274C305.607 83.5092 305.607 82.9665 305.681 82.4483C305.705 82.3003 305.755 82.177 305.78 82.0536C305.804 81.9056 305.804 81.7822 305.829 81.6342C305.854 81.3628 305.878 81.0667 305.903 80.7953C305.952 80.2525 306.026 79.7097 306.1 79.167C306.248 78.0814 306.372 76.9711 306.52 75.8856C306.619 75.1701 306.742 74.4793 306.865 73.7884C307.038 74.3559 307.211 74.8987 307.359 75.4661C307.754 77.0452 308.001 78.6735 308.05 80.3019C308.099 81.8809 307.853 83.4846 307.68 85.0636C307.63 85.3843 307.853 85.6804 308.149 85.7791C308.445 85.8531 308.815 85.7051 308.914 85.409C309.259 84.3481 309.383 83.2379 309.457 82.1276C309.555 80.4006 309.407 78.6735 309.037 76.9711C308.84 76.0829 308.593 75.2194 308.247 74.3559C308.47 74.4546 308.692 74.5533 308.938 74.6273C309.432 74.7506 309.95 74.726 310.394 74.5039C310.592 74.4052 310.765 74.2819 310.913 74.1092C311.357 73.5664 311.406 72.6782 311.036 72.0367ZM308.494 72.4068C308.79 72.3821 309.062 72.4315 309.259 72.5055C309.309 72.5302 309.358 72.5548 309.407 72.5795C309.432 72.6042 309.457 72.6042 309.481 72.6288C309.481 72.6288 309.457 72.6288 309.432 72.6042C309.457 72.6288 309.506 72.6535 309.531 72.6782C309.481 72.6535 309.629 72.8262 309.605 72.7769C309.629 72.8016 309.629 72.8509 309.654 72.9002C309.654 72.9002 309.654 72.9249 309.654 72.9496C309.654 72.9496 309.654 73.0236 309.654 73.0483V73.0729C309.629 73.0729 309.605 73.0976 309.605 73.0976C309.605 73.0976 309.605 73.0976 309.629 73.0976C309.605 73.0976 309.555 73.0976 309.555 73.0976C309.531 73.0976 309.531 73.0976 309.531 73.0976H309.506C309.457 73.0976 309.383 73.0729 309.333 73.0729C309.309 73.0729 309.235 73.0483 309.235 73.0483C309.185 73.0236 309.136 73.0236 309.086 72.9989C308.988 72.9496 308.864 72.9002 308.766 72.8509C308.568 72.7275 308.371 72.6042 308.173 72.4561C308.247 72.4315 308.371 72.4068 308.494 72.4068Z" fill="#FCB713"/>
<g opacity="0.5">
<g opacity="0.6">
<g opacity="0.6">
<path opacity="0.6" d="M157.95 158.955C157.975 160.386 158.024 161.841 158.049 163.272L158.123 167.59C158.123 167.689 158.049 167.763 157.975 167.763C157.876 167.763 157.802 167.689 157.802 167.614L157.876 163.297C157.901 161.841 157.925 160.41 157.95 158.955Z" fill="#231F20"/>
<path opacity="0.6" d="M158.221 176.225L158.271 180.542L158.295 184.86C158.295 185.033 158.147 185.205 157.975 185.205C157.802 185.205 157.629 185.057 157.629 184.885L157.654 180.567L157.703 176.249C157.703 176.101 157.827 175.978 157.975 175.978C158.098 175.978 158.221 176.101 158.221 176.225Z" fill="#231F20"/>
<path opacity="0.6" d="M158.32 193.496C158.32 196.382 158.32 199.244 158.32 202.131C158.32 202.328 158.147 202.501 157.95 202.501C157.753 202.501 157.58 202.328 157.58 202.131C157.58 199.244 157.58 196.382 157.58 193.496C157.58 193.298 157.753 193.125 157.95 193.125C158.147 193.15 158.32 193.298 158.32 193.496Z" fill="#231F20"/>
<path opacity="0.6" d="M158.295 210.766L158.271 215.083L158.221 219.401C158.221 219.549 158.098 219.648 157.95 219.648C157.802 219.648 157.703 219.524 157.703 219.401L157.654 215.083L157.629 210.766C157.629 210.593 157.777 210.445 157.95 210.42C158.147 210.445 158.295 210.593 158.295 210.766Z" fill="#231F20"/>
<path opacity="0.6" d="M158.123 228.037L158.049 232.157C158.024 233.539 157.999 234.896 157.975 236.277C157.95 234.896 157.901 233.539 157.901 232.157L157.827 228.037C157.827 227.938 157.901 227.889 157.975 227.889C158.049 227.889 158.123 227.963 158.123 228.037Z" fill="#231F20"/>
</g>
</g>
<g opacity="0.6">
<g opacity="0.6">
<path opacity="0.6" d="M177.792 158.955C177.891 160.386 177.965 161.841 178.014 163.272C178.039 163.988 178.064 164.703 178.088 165.443C178.113 166.159 178.138 166.874 178.138 167.615C178.138 167.787 177.99 167.935 177.817 167.935C177.644 167.935 177.496 167.787 177.496 167.615C177.496 166.899 177.521 166.184 177.545 165.443C177.57 164.728 177.595 164.012 177.619 163.272C177.644 161.841 177.694 160.41 177.792 158.955Z" fill="#231F20"/>
<path opacity="0.6" d="M178.138 176.225L178.113 178.396L178.064 180.542C178.014 181.973 177.965 183.429 177.891 184.86C177.891 184.909 177.842 184.934 177.792 184.934C177.743 184.934 177.718 184.909 177.718 184.86C177.644 183.429 177.595 181.973 177.545 180.542L177.496 178.396L177.471 176.225C177.471 176.027 177.619 175.879 177.817 175.879C177.99 175.879 178.138 176.027 178.138 176.225Z" fill="#231F20"/>
</g>
</g>
<g opacity="0.6">
<g opacity="0.6">
<path opacity="0.6" d="M195.364 141.685C195.438 143.116 195.463 144.572 195.512 146.003C195.561 147.434 195.586 148.889 195.611 150.32C195.611 150.468 195.512 150.567 195.364 150.567C195.216 150.567 195.117 150.468 195.117 150.32C195.142 148.889 195.166 147.434 195.216 146.003C195.265 144.547 195.29 143.116 195.364 141.685Z" fill="#231F20"/>
<path opacity="0.6" d="M195.709 158.955L195.734 163.273V167.59C195.734 167.788 195.561 167.961 195.364 167.961C195.166 167.961 194.994 167.813 194.994 167.59V163.273L195.018 158.955C195.018 158.758 195.166 158.61 195.364 158.61C195.561 158.61 195.709 158.758 195.709 158.955Z" fill="#231F20"/>
<path opacity="0.6" d="M195.635 176.226C195.611 177.657 195.586 179.113 195.561 180.544L195.438 184.862C195.438 184.886 195.413 184.911 195.389 184.911C195.364 184.911 195.339 184.886 195.339 184.862L195.216 180.544C195.191 179.113 195.142 177.657 195.142 176.226C195.142 176.078 195.265 175.955 195.413 175.955C195.512 175.955 195.611 176.054 195.635 176.226Z" fill="#231F20"/>
</g>
</g>
<g opacity="0.6">
<g opacity="0.6">
<path opacity="0.6" d="M215.774 141.685L215.848 146.003L215.897 150.32C215.897 150.394 215.848 150.444 215.774 150.444C215.7 150.444 215.65 150.394 215.65 150.32L215.7 146.003L215.774 141.685Z" fill="#231F20"/>
<path opacity="0.6" d="M215.996 158.955L216.07 167.591C216.07 167.763 215.947 167.887 215.774 167.887C215.601 167.887 215.478 167.763 215.478 167.591L215.552 158.955C215.552 158.832 215.65 158.733 215.774 158.733C215.897 158.733 215.996 158.832 215.996 158.955Z" fill="#231F20"/>
<path opacity="0.6" d="M216.119 176.226L216.144 184.862C216.144 185.059 215.996 185.207 215.798 185.207C215.601 185.207 215.453 185.059 215.453 184.862L215.478 176.226C215.478 176.054 215.626 175.906 215.798 175.906C215.971 175.881 216.119 176.029 216.119 176.226Z" fill="#231F20"/>
<path opacity="0.6" d="M216.144 193.496L216.119 202.131C216.119 202.329 215.971 202.477 215.774 202.477C215.576 202.477 215.428 202.329 215.428 202.131L215.404 193.496C215.404 193.299 215.576 193.126 215.774 193.126C215.971 193.126 216.144 193.299 216.144 193.496Z" fill="#231F20"/>
<path opacity="0.6" d="M216.095 210.767L216.07 215.084L216.045 219.402C216.045 219.55 215.922 219.649 215.798 219.649C215.65 219.649 215.552 219.525 215.552 219.402L215.527 215.084L215.502 210.767C215.502 210.594 215.65 210.446 215.823 210.446C215.947 210.446 216.095 210.594 216.095 210.767Z" fill="#231F20"/>
<path opacity="0.6" d="M215.947 228.037L215.823 236.673C215.823 236.697 215.798 236.722 215.774 236.722C215.749 236.722 215.724 236.697 215.724 236.673L215.601 228.037C215.601 227.939 215.675 227.865 215.774 227.865C215.873 227.865 215.947 227.939 215.947 228.037Z" fill="#231F20"/>
</g>
</g>
<g opacity="0.6">
<g opacity="0.6">
<path opacity="0.6" d="M232.26 125.994C232.358 127.425 232.408 128.88 232.457 130.311C232.506 131.742 232.531 133.198 232.58 134.629C232.58 134.802 232.457 134.95 232.284 134.95C232.112 134.95 231.963 134.826 231.963 134.654C231.963 134.654 231.963 134.654 231.963 134.629C231.988 133.198 232.038 131.742 232.087 130.311C232.112 128.856 232.161 127.425 232.26 125.994Z" fill="#231F20"/>
<path opacity="0.6" d="M232.605 143.264C232.605 143.98 232.605 144.695 232.58 145.435L232.556 147.606L232.531 149.728C232.506 150.444 232.506 151.159 232.482 151.899C232.482 152.023 232.383 152.121 232.26 152.097C232.136 152.097 232.062 151.998 232.062 151.899C232.037 151.184 232.013 150.468 232.013 149.728L231.963 147.557L231.939 145.386C231.939 144.67 231.939 143.955 231.914 143.215C231.914 143.017 232.062 142.845 232.284 142.845C232.506 142.845 232.605 143.042 232.605 143.264C232.605 143.239 232.605 143.264 232.605 143.264Z" fill="#231F20"/>
</g>
</g>
</g>
<path opacity="0.3" d="M157.95 158.981C159.136 158.981 160.097 158.02 160.097 156.834C160.097 155.649 159.136 154.688 157.95 154.688C156.764 154.688 155.803 155.649 155.803 156.834C155.803 158.02 156.764 158.981 157.95 158.981Z" fill="#6457A4"/>
<path opacity="0.3" d="M177.792 158.981C178.978 158.981 179.939 158.02 179.939 156.834C179.939 155.649 178.978 154.688 177.792 154.688C176.606 154.688 175.645 155.649 175.645 156.834C175.645 158.02 176.606 158.981 177.792 158.981Z" fill="#6457A4"/>
<path opacity="0.3" d="M196.006 142.845C197.191 142.845 198.153 141.884 198.153 140.699C198.153 139.513 197.191 138.552 196.006 138.552C194.82 138.552 193.858 139.513 193.858 140.699C193.858 141.884 194.82 142.845 196.006 142.845Z" fill="#6457A4"/>
<path opacity="0.3" d="M215.848 142.845C217.034 142.845 217.995 141.884 217.995 140.699C217.995 139.513 217.034 138.552 215.848 138.552C214.662 138.552 213.701 139.513 213.701 140.699C213.701 141.884 214.662 142.845 215.848 142.845Z" fill="#6457A4"/>
<path opacity="0.3" d="M231.815 127.82C233.001 127.82 233.962 126.859 233.962 125.674C233.962 124.488 233.001 123.527 231.815 123.527C230.63 123.527 229.668 124.488 229.668 125.674C229.668 126.859 230.63 127.82 231.815 127.82Z" fill="#6457A4"/>
<path opacity="0.4" d="M247.61 118.667L231.815 125.673L215.848 140.699H196.006L177.792 156.834H157.95" stroke="#6457A4" stroke-width="5" stroke-miterlimit="10" stroke-linecap="round" stroke-linejoin="round"/>
<path opacity="0.4" d="M244.427 118.666H247.61L245.488 120.788" stroke="#6457A4" stroke-width="5" stroke-miterlimit="10" stroke-linecap="round" stroke-linejoin="round"/>
</g>
<defs>
<filter id="filter0_d_17_219" x="0" y="4.30664" width="348.166" height="264.694" filterUnits="userSpaceOnUse" color-interpolation-filters="sRGB">
<feFlood flood-opacity="0" result="BackgroundImageFix"/>
<feColorMatrix in="SourceAlpha" type="matrix" values="0 0 0 0 0 0 0 0 0 0 0 0 0 0 0 0 0 0 127 0" result="hardAlpha"/>
<feOffset dy="4"/>
<feGaussianBlur stdDeviation="2"/>
<feComposite in2="hardAlpha" operator="out"/>
<feColorMatrix type="matrix" values="0 0 0 0 0 0 0 0 0 0 0 0 0 0 0 0 0 0 0.25 0"/>
<feBlend mode="normal" in2="BackgroundImageFix" result="effect1_dropShadow_17_219"/>
<feBlend mode="normal" in="SourceGraphic" in2="effect1_dropShadow_17_219" result="shape"/>
</filter>
<filter id="filter1_d_17_219" x="105.726" y="121.603" width="218.663" height="139.774" filterUnits="userSpaceOnUse" color-interpolation-filters="sRGB">
<feFlood flood-opacity="0" result="BackgroundImageFix"/>
<feColorMatrix in="SourceAlpha" type="matrix" values="0 0 0 0 0 0 0 0 0 0 0 0 0 0 0 0 0 0 127 0" result="hardAlpha"/>
<feOffset dy="4"/>
<feGaussianBlur stdDeviation="2"/>
<feComposite in2="hardAlpha" operator="out"/>
<feColorMatrix type="matrix" values="0 0 0 0 0 0 0 0 0 0 0 0 0 0 0 0 0 0 0.25 0"/>
<feBlend mode="normal" in2="BackgroundImageFix" result="effect1_dropShadow_17_219"/>
<feBlend mode="normal" in="SourceGraphic" in2="effect1_dropShadow_17_219" result="shape"/>
</filter>
</defs>
</svg>
